<?xml version="1.0" encoding="utf-8"?>
<!-- Generator: Adobe Illustrator 27.5.0, SVG Export Plug-In . SVG Version: 6.00 Build 0)  -->
<svg version="1.1" id="Layer_1" xmlns="http://www.w3.org/2000/svg" xmlns:xlink="http://www.w3.org/1999/xlink" x="0px" y="0px"
	 width="704.9px" height="579.8px" viewBox="0 0 704.9 579.8" style="enable-background:new 0 0 704.9 579.8;" xml:space="preserve"
	>
<style type="text/css">
	.st0{opacity:0.5;}
	.st1{fill:none;stroke:#0071B9;stroke-width:2;stroke-linecap:round;stroke-linejoin:round;}
	.st2{fill:#0071B9;}
	.st3{fill:none;stroke:#0071B9;stroke-width:2;stroke-linecap:round;stroke-linejoin:round;stroke-miterlimit:10;}
	.st4{fill:none;stroke:#000000;stroke-width:2;stroke-linecap:round;stroke-linejoin:round;stroke-miterlimit:10;}
	.st5{fill:#FF0000;}
	.st6{fill:#29A8DF;}
	.st7{fill:#006837;}
	.st8{fill:none;stroke:#00219F;stroke-miterlimit:10;}
	.st9{fill:none;stroke:#006837;stroke-miterlimit:10;}
	.st10{fill:none;stroke:#EA1E79;stroke-miterlimit:10;}
	.st11{fill:none;stroke:#212121;stroke-width:2;stroke-linecap:round;stroke-linejoin:round;stroke-miterlimit:10;}
	.st12{opacity:0.3;fill:none;stroke:#006837;stroke-width:2;stroke-linecap:round;stroke-linejoin:round;stroke-miterlimit:10;}
	.st13{fill:none;stroke:#EA1E79;stroke-width:2;stroke-linecap:round;stroke-linejoin:round;}
	.st14{fill:#EA1E79;}
	.st15{opacity:0.6;}
	.st16{fill:none;stroke:#90278C;stroke-width:2;stroke-linecap:round;stroke-linejoin:round;}
	.st17{fill:#90278C;}
	.st18{fill:none;stroke:#BE272D;stroke-width:2;stroke-linecap:round;stroke-linejoin:round;}
	.st19{fill:#BE272D;}
	.st20{fill:none;stroke:#808080;stroke-width:2;stroke-linecap:round;stroke-linejoin:round;}
	.st21{fill:none;stroke:#808080;stroke-width:2;stroke-linecap:round;stroke-linejoin:round;stroke-dasharray:7.9773,7.9773;}
	.st22{fill:none;stroke:#808080;stroke-width:2;stroke-linecap:round;stroke-linejoin:round;stroke-dasharray:7.2572,7.2572;}
	
		.st23{fill:none;stroke:#808080;stroke-width:2;stroke-linecap:round;stroke-linejoin:round;stroke-miterlimit:10;stroke-dasharray:7.6718;}
	.st24{fill:none;stroke:#006837;stroke-width:2;stroke-linecap:round;stroke-linejoin:round;stroke-miterlimit:10;}
	.st25{fill:none;stroke:#EA1E79;stroke-width:2;stroke-linecap:round;stroke-linejoin:round;stroke-miterlimit:10;}
	.st26{opacity:0.6;fill:none;stroke:#90278C;stroke-width:2;stroke-linecap:round;stroke-linejoin:round;stroke-miterlimit:10;}
	.st27{fill:none;stroke:#EE5A24;stroke-width:2;stroke-linecap:round;stroke-linejoin:round;}
	.st28{fill:#EE5A24;}
	.st29{fill:none;stroke:#EE5A24;stroke-width:2;stroke-linecap:round;stroke-linejoin:round;stroke-miterlimit:10;}
	.st30{fill:none;stroke:#26EC9F;stroke-width:2;stroke-linecap:round;stroke-linejoin:round;}
	.st31{fill:#26EC9F;}
	.st32{fill:none;stroke:#26EC9F;stroke-width:2;stroke-linecap:round;stroke-linejoin:round;stroke-miterlimit:10;}
	.st33{fill:none;stroke:#BE272D;stroke-width:2;stroke-linecap:round;stroke-linejoin:round;stroke-miterlimit:10;}
	.st34{fill:#808080;}
</style>
<g class="st0">
	<g>
		<g>
			<line class="st1" x1="200.6" y1="190.3" x2="607.9" y2="265.8"/>
			<g>
				<polygon class="st2" points="602.9,270.7 625.3,269 605.1,259.3 				"/>
			</g>
		</g>
	</g>
	<path class="st3" d="M408.7,198.8c0,4.1-1,15.5-1,19.6c0.1-1.9,0.2-3.9,1-5.7c0.8-1.8,2.6-3.2,4.5-3.2c1.7,0.1,3.2,1.4,3.8,3
		c0.5,1.6,0.2,3.5-0.6,5"/>
	<path class="st3" d="M424.2,216.7c0,1.8,0,3.7,0,5.5"/>
	<path class="st3" d="M406.8,198.8"/>
</g>
<g>
	<path class="st4" d="M215.4,180.2c-6.3-6.7-17.2-6.1-21.7,2.7c-4.5,8.8,1.5,23.5,9.6,21.9c5.6-1.1,9.1-8.1,11.4-14.7
		c0.8-2.5,1.6-5.3,0.9-7.8c-0.7-2.5-3.7-4-5-1.9"/>
	<path class="st4" d="M200.8,205.2c-2.8-0.6-5.6-1.4-7.8-3.1c-0.2-0.2-0.4-0.3-0.7-0.4c-0.3-0.1-0.5-0.1-0.8-0.1
		c-0.5,0-1-0.2-1.3-0.6"/>
	<path class="st4" d="M206.5,175.5c-1.8,0.1-3.7-0.3-5.2-1.2c-0.6-0.3-1.2-0.7-1.8-1c-1.4-0.6-3.1-0.3-4.5-1.1"/>
	<path class="st4" d="M194.7,172.2c-5.4,1.2-9.3,6.4-10.1,11.8c-0.7,5.5,2.4,12.4,5.5,17"/>
</g>
<g>
	<path d="M-1108.1-115.8c32.4,0,62.8,12,85.7,33.7c22.9,21.7,35.5,50.6,35.5,81.3s-12.6,59.6-35.5,81.3
		c-22.9,21.7-53.3,33.7-85.7,33.7c-32.4,0-62.8-12-85.7-33.7c-22.9-21.7-35.5-50.6-35.5-81.3s12.6-59.6,35.5-81.3
		C-1171-103.8-1140.5-115.8-1108.1-115.8 M-1108.1-116.8c-67.5,0-122.2,51.9-122.2,116s54.7,116,122.2,116
		c67.5,0,122.2-51.9,122.2-116S-1040.6-116.8-1108.1-116.8L-1108.1-116.8z"/>
</g>
<g>
	<path d="M-1108.1-57.5c18.3,0,36,1.9,52.6,5.7c36.9,8.3,62.2,24.7,67.6,43.7c3.1,10.8-0.7,21.8-10.8,31.7
		c-10.1,9.8-25.8,18.1-45.6,23.8c-19.3,5.6-41.4,8.5-64,8.5c-18.3,0-36-1.9-52.6-5.7c-36.9-8.3-62.2-24.7-67.6-43.7
		c-3.1-10.8,0.7-21.8,10.8-31.7c10.1-9.8,25.8-18.1,45.6-23.8C-1152.8-54.5-1130.7-57.5-1108.1-57.5L-1108.1-57.5 M-1108.1-58.2
		c-45.4,0-89.1,12-110.1,32.5c-29.2,28.5-3.6,62.8,57.1,76.5c17,3.9,35.1,5.7,52.8,5.7c45.4,0,89.1-12,110.1-32.5
		c29.2-28.5,3.6-62.8-57.1-76.5C-1072.4-56.3-1090.4-58.2-1108.1-58.2L-1108.1-58.2z"/>
</g>
<g>
	<g>
		<path d="M-1209.8,28.5c18-19.1,45.4-24.7,70.3-28.5c15.5-2.4,31.2-3.4,46.8-0.2c7.6,1.5,15,3.8,22.4,6.1c7.5,2.4,15,4.9,22.4,7.4
			c16.6,5.7,33.1,11.8,49.5,18.2c1.8,0.7,2.6-2.2,0.8-2.9c-14.8-5.9-29.8-11.4-44.9-16.6c-7.5-2.6-15.1-5.2-22.7-7.6
			c-7.4-2.4-14.9-4.8-22.5-6.6c-7.7-1.8-15.4-2.9-23.3-3.1c-8-0.2-16,0.5-23.9,1.6c-13.6,1.8-27.3,4.2-40.4,8.5
			c-13.6,4.4-26.7,11.1-36.6,21.6C-1213.2,27.8-1211.1,29.9-1209.8,28.5L-1209.8,28.5z"/>
	</g>
</g>
<g>
	<g>
		<path d="M-1007.8,28.3c-1.2,14.4-9,27.4-19.6,36.9c-11.9,10.7-27.4,16.5-43.1,18.4c-17.7,2.1-35.6-0.2-52.8-4.2
			c-9.1-2.1-18.1-4.7-27.1-7.4c-8.8-2.6-17.7-5.1-26.5-7.6c-8.2-2.3-16.2-5.2-22.8-10.8c-6-5.1-10.7-11.5-14.5-18.4
			c-0.9-1.7-1.8-3.4-2.7-5.2c-0.9-1.7-3.4-0.2-2.6,1.5c3.6,7.3,7.9,14.3,13.5,20.2c5.9,6.3,13.2,10.5,21.3,13.3
			c4.3,1.5,8.7,2.7,13.1,3.9c4.6,1.3,9.2,2.6,13.8,4c9.3,2.7,18.6,5.5,28,7.9c17.8,4.5,36.2,7.6,54.6,6.2
			c16.6-1.3,33.1-6.3,46.4-16.6c11.6-9.1,20.8-22,23.5-36.7c0.3-1.8,0.6-3.6,0.7-5.5C-1004.7,26.4-1007.7,26.4-1007.8,28.3
			L-1007.8,28.3z"/>
	</g>
</g>
<g>
	<g>
		<path d="M-1213.4,31.2c1.9,0,1.9-3,0-3C-1215.3,28.2-1215.3,31.2-1213.4,31.2L-1213.4,31.2z"/>
	</g>
</g>
<g>
	<g>
		<path d="M-1201.8,19.8c0.3,0,0.6,0,0.9,0.1c0.1,0,0.1,0,0.2,0c0,0-0.2,0,0,0c0.2,0,0.3,0.1,0.5,0.1c0.7,0.1,1.5,0.2,2.2,0.3
			c1.3,0.1,2.7,0.1,4-0.5c1.7-0.8,2.9-2.9,2.8-4.7c-0.1-1.2-0.7-2.4-1.8-2.9c-0.7-0.3-1.6-0.2-2.1,0.5c-0.3,0.7-0.2,1.7,0.5,2.1
			c0.1,0,0.2,0.1,0.3,0.2c0.2,0.1-0.3-0.3,0,0c0.2,0.2-0.1-0.3,0,0c0,0,0.1,0.1,0.1,0.1c0.1,0.1,0,0.1-0.1-0.2c0,0,0.1,0.2,0.1,0.2
			c0.1,0.4,0-0.3,0,0c0,0.1,0,0.2,0,0.2c0,0.2-0.1,0.4,0,0c-0.1,0.2-0.1,0.4-0.1,0.6c-0.1,0.4,0.1-0.2,0,0.1c0,0.1-0.1,0.2-0.1,0.2
			c-0.1,0.1-0.1,0.2-0.2,0.3c0,0-0.1,0.1-0.1,0.1c-0.1,0.1,0,0,0.1-0.1c-0.1,0-0.2,0.2-0.2,0.3c-0.1,0.1-0.2,0.1-0.2,0.2
			c-0.1,0.1,0,0,0.1-0.1c0,0-0.1,0.1-0.1,0.1c-0.1,0.1-0.2,0.1-0.3,0.2c-0.2,0.1,0.3-0.1,0,0c-0.2,0-0.3,0.1-0.5,0.1
			c0,0-0.5,0.1-0.2,0c-0.2,0-0.4,0-0.6,0c-0.3,0-0.7,0-1,0c-0.2,0-0.3,0-0.5-0.1c-0.1,0-0.1,0-0.2,0c0.2,0,0.1,0,0,0
			c-0.3-0.1-0.7-0.1-1-0.2c-0.8-0.1-1.6-0.2-2.4-0.3c-0.8,0-1.5,0.7-1.5,1.5C-1203.3,19.2-1202.7,19.8-1201.8,19.8L-1201.8,19.8z"/>
	</g>
</g>
<g>
	<g>
		<path d="M-1171.5,4.4c3.9,0.8,7.9,0.5,11.6-1c0.7-0.3,1.2-0.9,1.1-1.6c-0.1-0.8-0.7-1.2-1.5-1.3c-1.5-0.1-3-0.3-4.6-0.4
			c-0.8-0.1-1.5,0.7-1.5,1.5c0,0.9,0.7,1.4,1.5,1.5c1.5,0.1,3,0.3,4.6,0.4c-0.1-1-0.3-2-0.4-2.9c-3.2,1.3-6.6,1.7-10,1
			c-0.8-0.2-1.6,0.2-1.8,1C-1172.8,3.2-1172.3,4.2-1171.5,4.4L-1171.5,4.4z"/>
	</g>
</g>
<g>
	<g>
		<path d="M-1137.9-0.1c1.1-0.4,2.4-0.1,3.6,0.1c1.3,0.2,2.6,0.1,3.8-0.4c1.1-0.5,2-1.3,2.4-2.4c0.4-1.2,0.1-2.5-0.8-3.4
			c-0.9-0.9-2.2-1.3-3.3-1.7c-1.4-0.4-2.8-0.8-4.3-0.8c-2.4,0.1-4.9,1.4-5.7,3.8c-0.8,2.5,1.2,5.8,4,5.5c0.8-0.1,1.5-0.6,1.5-1.5
			c0-0.7-0.7-1.6-1.5-1.5c-0.1,0-0.2,0-0.3,0c0,0-0.2,0-0.1,0c0.2,0-0.4-0.2-0.1,0c-0.1,0-0.4-0.3-0.3-0.1c0,0-0.1-0.1-0.1-0.1
			c0,0-0.2-0.3-0.1-0.1c0-0.1-0.2-0.4-0.2-0.3c0,0.1-0.1-0.3-0.1-0.4c0-0.1,0-0.3,0,0c0-0.1,0-0.1,0-0.2c0,0,0-0.3,0-0.2
			c0,0.2,0-0.1,0.1-0.2c0.1-0.2,0.2-0.5,0.4-0.6c0.1-0.1,0.3-0.3,0.3-0.3c0,0,0.3-0.2,0.4-0.3c0.3-0.2,0.4-0.2,0.8-0.3
			c0.5-0.1,0.6-0.1,1.1-0.1c1,0,2,0.3,2.9,0.6c0.9,0.3,1.6,0.4,2.3,0.9c-0.1-0.1,0.1,0.1,0.1,0.1c0.1,0.1,0.2,0.2,0.1,0.3
			c0,0,0.1-0.2,0-0.1c-0.1,0.1,0-0.2,0,0c0,0.1,0,0.1-0.1,0.2c0.1-0.3,0,0-0.1,0.1c-0.1,0.2,0.1-0.2,0,0c0,0.1-0.1,0.1-0.1,0.2
			c-0.2,0.2-0.1,0.1,0,0c-0.1,0-0.1,0.1-0.2,0.1c-0.2,0.1-0.3,0.2-0.5,0.3c0.2-0.1,0,0-0.1,0c-0.1,0-0.2,0.1-0.4,0.1
			c-0.1,0-0.1,0-0.2,0.1c0.2,0-0.1,0-0.1,0c-0.2,0-0.5,0-0.7,0c-0.5,0-1-0.1-1.5-0.2c-1.3-0.2-2.5-0.3-3.7,0.1c-0.8,0.3-1.3,1-1,1.8
			C-1139.5-0.4-1138.6,0.1-1137.9-0.1L-1137.9-0.1z"/>
	</g>
</g>
<g>
	<g>
		<path d="M-1096.3-7.4c-2.8,1.7-3.2,5.3-1.9,8.1c1.5,3.2,5.2,4.3,8.4,3.5c1.9-0.5,3.8-1.6,5.1-3c0.4-0.4,0.5-0.9,0.4-1.5
			c-0.4-1.3-1.4-2.3-2.7-2.6c-0.8-0.2-1.7,0.2-1.8,1c-0.2,0.8,0.2,1.7,1,1.8c0.1,0,0.2,0,0.3,0.1c-0.1-0.1-0.1-0.1,0,0
			c0,0,0.1,0,0.1,0.1c-0.1-0.1-0.1-0.1,0,0c0,0,0.3,0.3,0.1,0.1c0,0.1,0.1,0.2,0.1,0.2c-0.1-0.2-0.1-0.1,0,0c0.1-0.5,0.3-1,0.4-1.5
			c-0.2,0.2-0.5,0.5-0.7,0.7c-0.1,0.1-0.1,0.1-0.2,0.2c0,0,0.2-0.1,0,0c-0.2,0.1-0.3,0.2-0.5,0.3c-0.3,0.2-0.6,0.4-0.9,0.5
			c-0.2,0.1-0.3,0.1-0.5,0.2c0.2-0.1-0.2,0.1-0.3,0.1c-0.3,0.1-0.6,0.2-1,0.3c-0.1,0-0.3,0.1-0.4,0.1c0.3,0-0.2,0-0.3,0
			c-0.3,0-0.6,0-1,0c-0.3,0-0.1,0,0,0c-0.1,0-0.1,0-0.2,0c-0.2,0-0.4-0.1-0.5-0.1c-0.2,0-0.3-0.1-0.5-0.1c0,0-0.3-0.1,0,0
			c-0.1,0-0.1-0.1-0.2-0.1c-0.1-0.1-0.3-0.1-0.4-0.2c-0.1-0.1-0.4-0.3-0.2-0.1c-0.2-0.2-0.4-0.3-0.6-0.5c0,0-0.1-0.1-0.1-0.1
			c-0.1-0.1,0.1,0.2,0,0c-0.1-0.1-0.2-0.2-0.2-0.4c-0.1-0.1-0.1-0.2-0.2-0.3c0,0,0-0.1-0.1-0.2c-0.1-0.2,0.1,0.2,0,0
			c-0.1-0.3-0.2-0.5-0.3-0.8c0-0.1,0-0.3-0.1-0.4c0-0.2,0,0.1,0,0.1c0-0.1,0-0.1,0-0.2c0-0.3,0-0.5,0-0.8c0-0.1,0-0.1,0-0.2
			c0,0.1,0,0.3,0,0.1c0-0.2,0.1-0.3,0.1-0.5c0-0.1,0.2-0.5,0.1-0.3c-0.1,0.2,0.1-0.2,0.1-0.2c0.1-0.1,0.2-0.2,0.2-0.4
			c0.1-0.1-0.1,0.1-0.1,0.1c0.1-0.1,0.1-0.1,0.2-0.2c0.1-0.1,0.4-0.3,0.2-0.2c-0.2,0.1,0,0,0,0c0.1-0.1,0.2-0.1,0.3-0.2
			c0.7-0.4,0.9-1.4,0.5-2.1C-1094.6-7.6-1095.6-7.8-1096.3-7.4L-1096.3-7.4z"/>
	</g>
</g>
<g>
	<g>
		<path d="M-1048,9.7c-0.7,1.7,0.1,3.7,1.4,4.8c0.7,0.6,1.6,1,2.6,0.9c1-0.1,2-0.6,2.6-1.5c0.9-1.3,0.6-3.2-0.3-4.5
			c-0.5-0.7-1.1-1.3-1.9-1.7c-1-0.5-2-0.5-3.1-0.3c-2.2,0.4-4,2.1-5.6,3.6c-0.6,0.6-0.6,1.6,0,2.1c0.6,0.5,1.5,0.6,2.1,0
			c0.6-0.6,1.1-1.1,1.7-1.6c0.1-0.1,0.1-0.1,0.2-0.2c0,0-0.2,0.2,0,0c0.1-0.1,0.3-0.2,0.4-0.3c0.3-0.2,0.7-0.4,1-0.5
			c-0.3,0.1-0.1,0,0,0c0.1,0,0.2-0.1,0.3-0.1c0.2,0,0.3-0.1,0.5-0.1c0.1,0,0.4-0.1,0,0c0.1,0,0.2,0,0.2,0c0.1,0,0.6,0,0.6,0
			c0,0-0.4-0.1-0.1,0c0.1,0,0.1,0,0.2,0c0.1,0,0.1,0,0.2,0.1c0.2,0.1-0.1,0-0.1-0.1c0.1,0.1,0.2,0.1,0.3,0.2c0.1,0,0.1,0.1,0.2,0.1
			c0.2,0.1-0.2-0.2-0.1,0c0.1,0.1,0.2,0.2,0.3,0.3c0,0,0.3,0.3,0.1,0.2c-0.2-0.2,0.1,0.1,0.1,0.2c0.1,0.1,0.1,0.3,0.2,0.4
			c0,0-0.1-0.3-0.1-0.1c0,0.1,0,0.1,0.1,0.2c0,0.1,0.1,0.2,0.1,0.3c0.1,0.2,0-0.1,0-0.2c0,0,0,0.2,0,0.2c0,0.1,0,0.1,0,0.2
			c0,0.3,0-0.1,0-0.1c0,0-0.2,0.5,0,0.2c0.1-0.3-0.1,0.2-0.1,0.2c0,0,0.3-0.3,0.1-0.1c0,0-0.1,0.1-0.1,0.1c0,0,0.3-0.2,0.1-0.1
			c0,0-0.2,0.1-0.2,0.1c0,0,0.4-0.1,0.1-0.1c0,0-0.2,0-0.2,0c0.1-0.1,0.3,0,0.1,0c-0.1,0-0.1,0-0.2,0c-0.2,0,0.1,0,0.1,0
			c0,0-0.2,0-0.2-0.1c-0.1,0-0.2-0.1,0,0c0.2,0.1,0,0-0.1,0c-0.1,0-0.1-0.1-0.2-0.1c-0.3-0.2,0.1,0,0.1,0c0,0-0.3-0.3-0.3-0.3
			c-0.2-0.2,0.1,0.1,0.1,0.1c0,0-0.2-0.2-0.2-0.2c0-0.1-0.2-0.4-0.2-0.4c0,0,0.1,0.4,0,0.1c0-0.1-0.1-0.2-0.1-0.3c0,0,0-0.2,0-0.2
			c0.1,0.1,0,0.4,0,0c0-0.1,0-0.1,0-0.2c0-0.3-0.1,0.2,0,0.1c0.1-0.2,0.1-0.3,0.1-0.5c0.3-0.7-0.3-1.7-1-1.8
			C-1047,8.5-1047.7,9-1048,9.7L-1048,9.7z"/>
	</g>
</g>
<g>
	<g>
		<path d="M-1011.8,24.2c-0.9-1.3-1.8-2.6-2.6-3.9c-0.1-0.2-0.2-0.3-0.3-0.5c-0.1-0.2-0.3-0.4-0.5-0.5c-0.3-0.2-0.6-0.3-1-0.3
			c-0.5,0-1,0.2-1.4,0.6c-0.5,0.5-0.8,1.2-0.8,1.9c0.1,1,0.6,2,1.7,2.1c0.4,0.1,0.8,0.1,1.2-0.2c0.3-0.2,0.6-0.5,0.7-0.9
			c0.2-0.7-0.2-1.7-1-1.8c-0.1,0-0.1,0-0.2,0c0.1,0.1,0.2,0.1,0.4,0.2c0,0-0.1,0-0.1-0.1c0.1,0.1,0.2,0.2,0.3,0.2
			c0,0-0.1-0.1-0.1-0.1c0.1,0.1,0.2,0.2,0.2,0.3c0-0.1-0.1-0.1-0.1-0.2c0.1,0.1,0.1,0.2,0.2,0.4c0-0.1,0-0.1-0.1-0.2
			c0,0.1,0,0.3,0.1,0.4c0-0.1,0-0.2,0-0.3c0,0.1,0,0.3-0.1,0.4c0-0.1,0-0.2,0.1-0.3c-0.1,0.1-0.1,0.2-0.2,0.4c0-0.1,0.1-0.1,0.1-0.2
			c-0.1,0.1-0.2,0.2-0.2,0.3c0,0,0.1-0.1,0.1-0.1c-0.1,0.1-0.2,0.2-0.3,0.2c0,0,0.1-0.1,0.1-0.1c-0.1,0.1-0.2,0.1-0.4,0.2
			c0,0,0.1,0,0.1,0c-0.1,0-0.3,0-0.4,0.1c0,0,0.1,0,0.1,0c-0.4-0.2-0.9-0.5-1.3-0.7c1,1.5,2,3,3,4.5c0.2,0.3,0.5,0.6,0.9,0.7
			c0.4,0.1,0.8,0.1,1.2-0.2C-1011.6,25.9-1011.3,24.9-1011.8,24.2L-1011.8,24.2z"/>
	</g>
</g>
<g>
	<g>
		<path d="M-1003.9,26.6c0-0.1,0-0.2,0-0.3c0-0.2-0.1,0.4,0,0.2c0,0,0-0.1,0-0.1c0-0.1,0.1-0.4,0-0.1c-0.1,0.3,0-0.1,0.1-0.1
			c0,0,0.1-0.1,0.1-0.1c0,0-0.3,0.3-0.1,0.2c0.1-0.1,0.1-0.2,0.2-0.2c0,0,0.1-0.1,0.1-0.1c0.1-0.1-0.3,0.2-0.1,0.1
			c0.1-0.1,0.2-0.1,0.3-0.2c0.1,0,0.4-0.2,0.1-0.1c-0.3,0.1,0.1,0,0.1,0c0.1,0,0.2,0,0.3-0.1c0.1,0-0.4,0-0.2,0c0,0,0.1,0,0.1,0
			c0.1,0,0.2,0,0.3,0c0,0-0.4-0.1-0.2,0c0,0,0.1,0,0.1,0c0,0,0.1,0,0.1,0c-0.4-0.1-0.3-0.1-0.2-0.1c0.1,0.1,0.2,0.1,0.3,0.2
			c-0.2-0.2-0.4-0.4-0.5-0.5c0,0.1,0.1,0.1,0.1,0.2c-0.2-0.4-0.1-0.2,0-0.1c0,0.1,0.1,0.3,0.1,0.4c0,0.1,0,0.4,0-0.1
			c0,0.1,0,0.1,0,0.2c0,0.1,0,0.3,0,0.4c0,0.1,0,0.1,0,0.2c0-0.5,0-0.3,0-0.1c0,0.1-0.1,0.3-0.1,0.4c0,0.1-0.1,0.3-0.1,0.4
			c-0.1,0.3,0.2-0.3,0-0.1c0,0.1-0.1,0.1-0.1,0.2c-0.1,0.1-0.1,0.2-0.2,0.3c0,0.1-0.1,0.1-0.1,0.2c-0.1,0.1,0.3-0.3,0-0.1
			c-0.1,0.1-0.2,0.2-0.3,0.3c-0.1,0.1-0.5,0.4-0.1,0.1c-0.2,0.2-0.4,0.3-0.7,0.4c0.4-0.2,0.2-0.1,0.1-0.1c-0.1,0-0.1,0-0.2,0.1
			c-0.2,0-0.3,0.1-0.5,0.1c-0.3,0-0.7,0.4-0.9,0.7c-0.2,0.3-0.3,0.8-0.2,1.2c0.1,0.4,0.3,0.7,0.7,0.9c0.4,0.2,0.7,0.2,1.2,0.2
			c2.4-0.3,4.1-2.7,4.3-5c0.1-0.5,0-1.1-0.2-1.7c-0.1-0.3-0.2-0.6-0.4-0.9c-0.2-0.4-0.6-0.6-0.9-0.8c-1.2-0.6-2.6-0.5-3.7,0.2
			c-1.2,0.7-2.1,2-2,3.4c0.1,0.8,0.6,1.5,1.5,1.5C-1004.6,28-1003.8,27.4-1003.9,26.6L-1003.9,26.6z"/>
	</g>
</g>
<g>
	<g>
		<path class="st5" d="M-1116-8.2c0.1,0.2-0.1-0.3-0.1-0.2C-1116.1-8.3-1116.1-8.3-1116-8.2c0,0,0,0.1,0,0.2c0-0.1,0-0.3-0.1-0.4
			c0,0.1,0,0.3,0,0.4c0-0.1,0-0.3,0.1-0.4c0,0.1-0.1,0.3-0.1,0.4C-1116.2-7.7-1115.9-8.4-1116-8.2c0,0.1-0.1,0.2-0.1,0.2
			c0,0.1-0.1,0.1-0.1,0.2c-0.1,0.2,0.3-0.3,0.1-0.1c-0.1,0.1-0.2,0.2-0.3,0.3c-0.3,0.2,0.3-0.2,0.1-0.1c0,0-0.1,0.1-0.1,0.1
			c-0.1,0.1-0.3,0.1-0.4,0.2c-0.2,0.1,0.4-0.1,0.2-0.1c-0.1,0-0.1,0-0.2,0.1c-0.1,0-0.3,0.1-0.4,0.1c0.1,0,0.3,0,0.4-0.1
			c-0.2,0-0.4,0-0.6,0c0.1,0,0.3,0,0.4,0.1c-0.1,0-0.2,0-0.3-0.1c0,0-0.1,0-0.1,0c-0.2-0.1,0.4,0.2,0.2,0.1c-0.1,0-0.2-0.1-0.3-0.2
			c-0.1-0.1,0.3,0.3,0.2,0.1c0,0-0.1-0.1-0.1-0.1c0,0-0.1-0.1-0.1-0.1c-0.1-0.1,0.2,0.3,0.1,0.1c-0.1-0.1-0.1-0.2-0.2-0.3
			c0,0,0.2,0.4,0.1,0.2c0,0,0-0.1,0-0.1c0-0.1-0.1-0.2-0.1-0.3c0,0.1,0,0.3,0.1,0.4c0-0.2,0-0.5,0-0.7c0,0.1,0,0.3-0.1,0.4
			c0-0.1,0.1-0.3,0.1-0.4c0-0.1,0-0.1,0.1-0.2c0,0,0-0.1,0-0.1c0,0-0.2,0.4-0.1,0.2c0.1-0.1,0.1-0.3,0.2-0.4c0-0.1,0.1-0.1,0.1-0.2
			c0.1-0.2-0.1,0.2-0.1,0.2c0,0,0.1-0.1,0.1-0.1c0.1-0.1,0.2-0.2,0.3-0.3c0.2-0.2-0.3,0.2-0.1,0.1c0.1,0,0.1-0.1,0.2-0.1
			c0.1,0,0.1-0.1,0.2-0.1c0.2-0.1-0.4,0.1-0.1,0c0.2,0,0.3-0.1,0.5-0.1c-0.1,0-0.3,0-0.4,0.1c0.2,0,0.4,0,0.7,0
			c-0.1,0-0.3,0-0.4-0.1c0.2,0,0.3,0.1,0.5,0.1c0,0,0.1,0,0.1,0c0.1,0-0.3-0.2-0.2-0.1c0.1,0,0.2,0.1,0.2,0.1c0.1,0,0.1,0.1,0.2,0.1
			c0,0,0.1,0,0.1,0.1c-0.4-0.2-0.2-0.2-0.1-0.1c0.1,0.1,0.3,0.2,0.4,0.4c0,0,0.1,0.1,0.1,0.1c0,0-0.2-0.3-0.1-0.2
			c0,0.1,0.1,0.1,0.1,0.2c0.1,0.2,0.2,0.3,0.3,0.5c0.1,0.1,0.1,0.3-0.1-0.2c0,0,0,0.1,0,0.1c0,0.1,0.1,0.2,0.1,0.2
			c0.1,0.2,0.1,0.4,0.1,0.6c0-0.1,0-0.3-0.1-0.4c0,0.3,0,0.6,0,0.9c0-0.1,0-0.3,0.1-0.4c0,0.3-0.1,0.6-0.2,0.8
			c-0.1,0.3,0,0.9,0.2,1.2c0.2,0.3,0.5,0.6,0.9,0.7c0.4,0.1,0.8,0.1,1.2-0.2c0.4-0.2,0.5-0.5,0.7-0.9c0.4-0.9,0.4-1.9,0.2-2.9
			c-0.2-0.9-0.7-1.8-1.3-2.5c-1.4-1.5-3.7-1.9-5.4-0.8c-1.6,1.1-2.5,3-2,4.9c0.2,0.9,0.9,1.8,1.8,2.2c0.9,0.4,1.9,0.5,2.8,0.2
			c1-0.3,1.9-1,2.5-1.9c0.6-1,0.6-2.2,0.1-3.3c-0.3-0.7-1.4-1-2.1-0.5C-1116.2-9.7-1116.4-8.9-1116-8.2L-1116-8.2z"/>
	</g>
</g>
<g>
	<g>
		<path class="st6" d="M-1114.9,41.5c-0.8-2.8-4.1-3.6-6.6-2.5c-2.9,1.3-3.3,4.9-1.8,7.4c1.8,3.1,5.4,3.9,8.7,3
			c3-0.9,6.7-3.5,6.3-7.1c-0.2-1.9-1.5-3.2-3.3-3.7c-1.6-0.5-3.3-0.3-4.9-0.1c-0.8,0.1-1.2,1.1-1,1.8c0.2,0.9,1,1.2,1.8,1
			c0.5-0.1-0.1,0,0.2,0c0.1,0,0.3,0,0.4,0c0.2,0,0.4,0,0.7,0c0.2,0,0.5,0,0.7,0c0.1,0,0.3,0,0.4,0c0,0,0.5,0.1,0.2,0
			c0.2,0,0.4,0.1,0.6,0.1c0.1,0,0.2,0.1,0.4,0.1c0.2,0.1-0.3-0.2,0.1,0.1c0.1,0,0.5,0.3,0.3,0.2c0.1,0.1,0.2,0.2,0.3,0.3
			c0.1,0.1,0.1,0.1,0,0c0,0.1,0.1,0.1,0.1,0.2c0.1,0.2,0.2,0.5,0.1,0.7c-0.1,0.5-0.3,0.9-0.6,1.3c-0.7,0.9-1.6,1.5-2.6,1.9
			c-1,0.5-2.2,0.7-3.3,0.6c-1-0.1-1.8-0.5-2.4-1.1c-0.3-0.3-0.5-0.5-0.7-1c0,0-0.1-0.3,0-0.1c0-0.1-0.1-0.2-0.1-0.3
			c0-0.1-0.1-0.2-0.1-0.3c0,0-0.1-0.5,0-0.2c0-0.3,0-0.5,0-0.8c0,0.2,0.1-0.3,0.1-0.4c0.1-0.4-0.1,0.1,0.1-0.1
			c0.1-0.1,0.1-0.2,0.2-0.3c0,0.1-0.2,0.2,0,0c0.1-0.1,0.2-0.2,0.3-0.3c-0.2,0.2,0.2-0.1,0.3-0.2c0.2-0.1,0.1,0,0,0
			c0.1,0,0.2-0.1,0.4-0.1c0.1,0,0.2,0,0.3-0.1c0.1,0,0.1,0-0.1,0c0.1,0,0.1,0,0.2,0c0.1,0,0.2,0,0.3,0c0.1,0,0.5,0.1,0.1,0
			c0.2,0,0.4,0.1,0.6,0.2c-0.3-0.1,0.2,0.1,0.3,0.2c-0.2-0.1-0.1-0.1,0,0c0.1,0.1,0.2,0.2,0.2,0.3c-0.2-0.2,0,0,0,0
			c0.1,0.4,0-0.1,0.1,0.2C-1117.3,44.2-1114.4,43.4-1114.9,41.5L-1114.9,41.5z"/>
	</g>
</g>
<g>
	<g>
		<path class="st6" d="M-1118.2,47.3c1.9,0,1.9-3,0-3C-1120.1,44.3-1120.1,47.3-1118.2,47.3L-1118.2,47.3z"/>
	</g>
</g>
<g>
	<g>
		<path class="st6" d="M-1120.4,44.9c2.2,1.2,5.2-0.5,5.1-3.1c-0.4,0.5-0.7,1-1.1,1.4c0.3-0.1,0.2-0.1-0.3,0c-0.1,0-0.2-0.1-0.2-0.2
			c0.2,0.2,0-0.1,0.1,0.1c-0.1-0.1-0.1-0.2-0.1-0.3c0-0.2,0-0.2,0,0c0,0,0-0.1,0-0.1c-0.1,0.1-0.1,0.2,0,0c0,0-0.3,0.3-0.1,0.1
			c-0.2,0.1-0.3,0.2-0.5,0.3c0.2-0.1-0.2,0.1-0.2,0.1c-0.2,0.1-0.4,0.1-0.6,0.2c0.2,0-0.2,0-0.2,0c-0.1,0-0.2,0-0.3,0
			c0.1,0,0.1,0,0,0c-0.1,0-0.5-0.2-0.3-0.1c-0.1-0.1-0.4-0.3-0.2-0.1c-0.1-0.1-0.1-0.1-0.2-0.2c0.1,0.1,0.1,0.1,0,0
			c0,0,0-0.1-0.1-0.1c0.1,0.2,0.1,0.2,0,0c0-0.3,0,0.3,0-0.1c-0.1-0.4,0,0.2,0-0.1c-0.1,0.2-0.1,0.2,0,0c0,0-0.1,0.1-0.1,0.1
			c0.1-0.1,0.1-0.1,0,0c0.2-0.1,0.2-0.1,0,0c0.2,0,0.2,0,0.1,0c-0.1,0-0.1,0,0.1,0c-0.3-0.1,0.1,0,0.2,0.1c0.1,0,0.1,0,0,0
			c0.1,0,0.2,0.1,0.3,0.1c0.1,0.1,0.3,0.2,0.4,0.2c-0.1-0.1-0.1-0.1,0.1,0c0.1,0.1,0.1,0.1,0.2,0.2c0.1,0.1,0.2,0.2,0.3,0.3
			c1,1.1,1.8,2.4,2.5,3.8c0.3-0.7,0.6-1.5,0.9-2.2c-0.1,0-0.1,0,0,0c0,0-0.4,0-0.2,0c0.2,0-0.1,0-0.1,0c-0.2,0,0.2,0.1-0.1,0
			c-0.1,0-0.2-0.1-0.2-0.1c0.1,0.1,0.1,0.1,0,0c0,0-0.3-0.3-0.2-0.2c0.1,0.1-0.1-0.1-0.1-0.1c-0.1-0.1-0.1-0.3,0-0.1
			c0-0.1,0-0.2-0.1-0.3c0,0.1,0,0.2,0,0c0,0,0-0.4,0-0.2c0,0.2,0.2-0.5,0.1-0.2c0-0.1,0.1-0.2,0.1-0.2c0,0,0.2-0.3,0.1-0.2
			c-0.1,0.1,0.1-0.1,0.1-0.1c0.1-0.1,0.1-0.1,0.2-0.2c0.1-0.1,0.3-0.2,0.1-0.1c0.1-0.1,0.2-0.1,0.2-0.2c0,0,0.4-0.2,0.2-0.1
			c-0.1,0.1,0.1,0,0.1-0.1c0.1,0,0.2-0.1,0.3-0.1c0,0,0.4-0.1,0.2,0c0.5-0.1,0.9,0,1.2,0c0.5,0.1,1.1,0.3,1.6,0.5
			c-0.3-0.7-0.6-1.5-0.9-2.2c0.1-0.2-0.1,0.1-0.1,0.1c-0.1,0.1-0.2,0.2-0.3,0.3c-0.2,0.2-0.4,0.4-0.6,0.5c-0.1,0.1-0.2,0.2-0.3,0.2
			c-0.2,0.2,0.3-0.2-0.1,0.1c-0.2,0.1-0.4,0.3-0.7,0.4c-0.5,0.3-0.8,0.4-1.1,0.5c-0.2,0.1-0.5,0.2-0.7,0.2c-0.1,0-0.3,0.1-0.4,0.1
			c-0.1,0-0.5,0.1-0.2,0c-0.8,0.1-1.5,0.6-1.5,1.5c0,0.7,0.7,1.6,1.5,1.5c2.9-0.4,5.3-1.8,7-4.1c0.3-0.4,0.2-0.9,0.1-1.3
			c-0.2-0.5-0.5-0.7-1-0.9c-2.7-1.1-6.5-0.9-7.9,2.1c-0.7,1.3-0.7,2.9,0.2,4.1c0.9,1.3,2.5,2,4,1.5c1-0.3,1.3-1.3,0.9-2.2
			c-0.8-1.7-1.9-3.4-3.3-4.8c-1.4-1.4-3.8-2.3-5.4-0.7c-1.4,1.5-0.9,4,0.7,5c1.8,1.2,4.3,0.7,5.9-0.6c0.9-0.8,1.4-2,1-3.1
			c-0.4-1.3-1.8-2.2-3.1-1.8c-0.6,0.2-1.1,0.8-1.1,1.4c0,0.1,0,0.2,0,0.2c0-0.2,0-0.2,0-0.1c0,0.1,0.1-0.2,0,0.1
			c-0.2,0.3,0.1-0.1-0.1,0.1c-0.2,0.2,0.2-0.1-0.1,0.1c-0.1,0-0.4,0.1-0.1,0.1c-0.1,0-0.2,0.1-0.3,0.1c0.4-0.1,0,0-0.1,0
			c0.2,0,0.2,0,0.1,0c0.2,0.1,0.2,0.1,0,0c-0.7-0.4-1.6-0.2-2.1,0.5C-1121.3,43.5-1121.1,44.5-1120.4,44.9L-1120.4,44.9z"/>
	</g>
</g>
<g>
	<g>
		<path class="st7" d="M-1118.7-7.5c-0.4,18.1-0.8,36.1-1.2,54.2c0,1.9,3,1.9,3,0c0.4-18.1,0.8-36.1,1.2-54.2
			C-1115.6-9.5-1118.6-9.5-1118.7-7.5L-1118.7-7.5z"/>
	</g>
</g>
<g>
	<g>
		<g>
			<path class="st7" d="M-1118.9,48.4c0.4,22.1,0.5,44.2,0.7,66.3c0.2,30.2,0.3,60.3,0.3,90.5c0.1,32.9,0.1,65.9,0.2,98.8
				c0.1,30.7,0.2,61.4,0.3,92.1c0.1,23.3,0.3,46.6,0.6,69.9c0,2.1,0.1,4.3,0.1,6.4c0,1.9,3,1.9,3,0c-0.4-22.1-0.5-44.2-0.7-66.3
				c-0.2-30.2-0.3-60.3-0.3-90.5c-0.1-32.9-0.1-65.9-0.2-98.8c-0.1-30.7-0.2-61.4-0.3-92.1c-0.1-23.3-0.3-46.6-0.6-69.9
				c0-2.1-0.1-4.3-0.1-6.4C-1115.9,46.5-1118.9,46.5-1118.9,48.4L-1118.9,48.4z"/>
		</g>
	</g>
	<g>
		<g>
			<path class="st7" d="M-1117.4,472.2c-0.1,0.1-0.2,0.2-0.4,0.3c0,0-0.5,0.4-0.2,0.2c-0.2,0.2-0.5,0.3-0.7,0.5
				c-0.2,0.1-0.5,0.3-0.8,0.4c-0.1,0-0.5,0.2-0.2,0.1c-0.1,0.1-0.3,0.1-0.4,0.2c-0.6,0.2-1.1,0.3-1.7,0.4c-0.2,0-0.2,0,0,0
				c-0.1,0-0.2,0-0.2,0c-0.1,0-0.2,0-0.4,0c-0.3,0-0.7,0-1,0c0.5,0.6,1,1.3,1.4,1.9c0.8-2.5,1.5-5.1,2.3-7.6c0.2-0.8-0.3-1.7-1-1.8
				c-0.8-0.2-1.6,0.2-1.8,1c-0.8,2.5-1.5,5.1-2.3,7.6c-0.3,1,0.5,1.9,1.4,1.9c3,0.2,5.9-1,8-3c0.6-0.5,0.6-1.6,0-2.1
				C-1115.9,471.6-1116.8,471.6-1117.4,472.2L-1117.4,472.2z"/>
		</g>
	</g>
	<g>
		<g>
			<path class="st7" d="M-1130.5,447.7c0.1,10.9,0.8,23.8,9.6,31.6c1.4,1.3,3.6-0.8,2.1-2.1c-8.2-7.2-8.6-19.3-8.7-29.4
				C-1127.6,445.7-1130.6,445.7-1130.5,447.7L-1130.5,447.7z"/>
		</g>
	</g>
	<g>
		<g>
			<path class="st7" d="M-1117.6,477.4c12.1-6.9,22.8-16,31.5-26.8c1.2-1.5-0.9-3.6-2.1-2.1c-8.5,10.7-19,19.6-30.9,26.4
				C-1120.8,475.7-1119.3,478.3-1117.6,477.4L-1117.6,477.4z"/>
		</g>
	</g>
</g>
<g>
	<g>
		<path class="st7" d="M-815.4,344.5c-2.5,56.1-7.6,112-12.5,167.9c-4.9,55.6-9.5,111.2-11.2,166.9c-0.9,31.2-0.9,62.5,0.5,93.7
			c0.1,1.9,3.1,1.9,3,0c-2.6-56-0.6-112,3.2-167.9c3.8-55.7,9.3-111.3,13.8-166.9c2.5-31.2,4.7-62.4,6.1-93.7
			C-812.3,342.6-815.3,342.6-815.4,344.5L-815.4,344.5z"/>
	</g>
</g>
<g>
	<g>
		<path class="st7" d="M-899.5,594.6c69.4-0.3,138.8-0.6,208.1-0.9c68.4-0.3,136.8-0.9,205.2,1.9c38.6,1.6,77.2,4.3,115.6,8.7
			c1.9,0.2,1.9-2.8,0-3c-68.2-7.9-136.9-10.2-205.6-10.8c-68.7-0.5-137.4,0.2-206.1,0.5c-39.1,0.2-78.2,0.4-117.3,0.5
			C-901.4,591.6-901.4,594.6-899.5,594.6L-899.5,594.6z"/>
	</g>
</g>
<g>
	<g>
		<path class="st7" d="M-748.4,546.7c1.9,0,1.9-3,0-3C-750.4,543.7-750.4,546.7-748.4,546.7L-748.4,546.7z"/>
	</g>
</g>
<g>
	<g>
		<path class="st7" d="M-712.3,521.9c1.9,0,1.9-3,0-3C-714.3,518.9-714.3,521.9-712.3,521.9L-712.3,521.9z"/>
	</g>
</g>
<g>
	<g>
		<path class="st7" d="M-678.5,569.3c1.9,0,1.9-3,0-3C-680.4,566.3-680.4,569.3-678.5,569.3L-678.5,569.3z"/>
	</g>
</g>
<g>
	<g>
		<path class="st7" d="M-686.4,505c1.9,0,1.9-3,0-3C-688.3,502-688.3,505-686.4,505L-686.4,505z"/>
	</g>
</g>
<g>
	<g>
		<path class="st7" d="M-645.8,476.8c1.9,0,1.9-3,0-3C-647.7,473.8-647.7,476.8-645.8,476.8L-645.8,476.8z"/>
	</g>
</g>
<g>
	<g>
		<path class="st7" d="M-649.2,505c1.9,0,1.9-3,0-3C-651.1,502-651.1,505-649.2,505L-649.2,505z"/>
	</g>
</g>
<g>
	<g>
		<path class="st7" d="M-698.8,464.4c1.9,0,1.9-3,0-3C-700.7,461.4-700.7,464.4-698.8,464.4L-698.8,464.4z"/>
	</g>
</g>
<g>
	<g>
		<path class="st7" d="M-720.2,502.8c1.9,0,1.9-3,0-3C-722.2,499.8-722.2,502.8-720.2,502.8L-720.2,502.8z"/>
	</g>
</g>
<g>
	<g>
		<path class="st7" d="M-681.9,526.4c1.9,0,1.9-3,0-3C-683.8,523.4-683.8,526.4-681.9,526.4L-681.9,526.4z"/>
	</g>
</g>
<g>
	<g>
		<path class="st7" d="M-616.5,471.2c1.9,0,1.9-3,0-3C-618.4,468.2-618.4,471.2-616.5,471.2L-616.5,471.2z"/>
	</g>
</g>
<g>
	<g>
		<path class="st7" d="M-645.8,440.7c1.9,0,1.9-3,0-3C-647.7,437.7-647.7,440.7-645.8,440.7L-645.8,440.7z"/>
	</g>
</g>
<g>
	<g>
		<path class="st7" d="M-595.1,440.7c1.9,0,1.9-3,0-3C-597,437.7-597,440.7-595.1,440.7L-595.1,440.7z"/>
	</g>
</g>
<g>
	<g>
		<path class="st7" d="M-569.1,391.1c1.9,0,1.9-3,0-3C-571.1,388.1-571.1,391.1-569.1,391.1L-569.1,391.1z"/>
	</g>
</g>
<g>
	<g>
		<path class="st7" d="M-536.4,411.4c1.9,0,1.9-3,0-3C-538.4,408.4-538.4,411.4-536.4,411.4L-536.4,411.4z"/>
	</g>
</g>
<g>
	<g>
		<path class="st7" d="M-686.4,370.6c1.9,0,1.9-3,0-3C-688.3,367.6-688.3,370.6-686.4,370.6L-686.4,370.6z"/>
	</g>
</g>
<g>
	<g>
		<path class="st7" d="M-634.5,356.2c1.9,0,1.9-3,0-3C-636.5,353.2-636.5,356.2-634.5,356.2L-634.5,356.2z"/>
	</g>
</g>
<g>
	<g>
		<path class="st7" d="M-739.4,411.4c1.9,0,1.9-3,0-3C-741.3,408.4-741.3,411.4-739.4,411.4L-739.4,411.4z"/>
	</g>
</g>
<g>
	<g>
		<path class="st7" d="M-752.9,479.1c1.9,0,1.9-3,0-3C-754.9,476.1-754.9,479.1-752.9,479.1L-752.9,479.1z"/>
	</g>
</g>
<g>
	<g>
		<path class="st7" d="M-616.5,314.9c1.9,0,1.9-3,0-3C-618.4,311.9-618.4,314.9-616.5,314.9L-616.5,314.9z"/>
	</g>
</g>
<g>
	<g>
		<path class="st7" d="M-527.4,331.4c1.9,0,1.9-3,0-3C-529.4,328.4-529.4,331.4-527.4,331.4L-527.4,331.4z"/>
	</g>
</g>
<g>
	<g>
		<path class="st7" d="M-566.9,411.4c1.9,0,1.9-3,0-3C-568.8,408.4-568.8,411.4-566.9,411.4L-566.9,411.4z"/>
	</g>
</g>
<g>
	<g>
		<path class="st7" d="M-621,420.4c1.9,0,1.9-3,0-3C-622.9,417.4-622.9,420.4-621,420.4L-621,420.4z"/>
	</g>
</g>
<g>
	<g>
		<path class="st7" d="M-621,456.5c1.9,0,1.9-3,0-3C-622.9,453.5-622.9,456.5-621,456.5L-621,456.5z"/>
	</g>
</g>
<g>
	<g>
		<path class="st7" d="M-667.2,473.4c1.9,0,1.9-3,0-3C-669.2,470.4-669.2,473.4-667.2,473.4L-667.2,473.4z"/>
	</g>
</g>
<g>
	<g>
		<path class="st7" d="M-667.2,507.3c1.9,0,1.9-3,0-3C-669.2,504.3-669.2,507.3-667.2,507.3L-667.2,507.3z"/>
	</g>
</g>
<g>
	<g>
		<path class="st7" d="M-727,541.1c1.9,0,1.9-3,0-3C-728.9,538.1-728.9,541.1-727,541.1L-727,541.1z"/>
	</g>
</g>
<g>
	<g>
		<path class="st7" d="M-745,515.2c1.9,0,1.9-3,0-3C-747,512.2-747,515.2-745,515.2L-745,515.2z"/>
	</g>
</g>
<line class="st8" x1="-830.8" y1="592.8" x2="-494.9" y2="350.9"/>
<rect x="-1466" y="344.5" class="st9" width="443.7" height="330"/>
<circle class="st9" cx="-1278.6" cy="372.3" r="11.1"/>
<line class="st10" x1="-1278.6" y1="372.3" x2="-1117.2" y2="-7.5"/>
<line class="st9" x1="-1278.6" y1="372.3" x2="-1022.3" y2="344.5"/>
<line class="st9" x1="-1278.6" y1="372.3" x2="-1022.3" y2="674.5"/>
<path class="st11" d="M333.9,29.7c2.3,91.9-7.3,219.3-3.2,311.6C251.8,411,167.6,479.2,78.9,544.8c1.1-72.6,0.2-194.6,1.3-267.2
	c0.1-6,0.2-12.2,2.6-17.7c2.7-6.2,7.9-11,12.9-15.5C149.7,196.2,279.9,77.9,333.9,29.7z"/>
<path class="st12" d="M648.2,229.8c-20.5-1.8-40,12.2-50.3,30c-10.4,17.8-13.4,38.9-15.3,59.4c21.5-7.8,43.4-16.1,60.6-31.2
	c17.2-15.1,28.8-38.6,23.6-60.9c-5.3,0.6-10.7,1.2-16,1.8"/>
<path class="st12" d="M562.8,357.7c-20.5-1.8-40,12.2-50.3,30c-10.4,17.8-13.4,38.9-15.3,59.4c21.5-7.8,43.4-16.1,60.6-31.2
	c17.2-15.1,28.8-38.6,23.6-60.9c-5.3,0.6-10.7,1.2-16,1.8"/>
<g>
	<g>
		<line class="st13" x1="82.7" y1="259.8" x2="150.9" y2="341.4"/>
		<g>
			<polygon class="st14" points="143.9,342.1 162.2,355 152.8,334.6 			"/>
		</g>
	</g>
</g>
<g class="st15">
	<g>
		<line class="st16" x1="185.3" y1="199.3" x2="82.7" y2="259.8"/>
		<g>
			<polygon class="st17" points="179,196.3 200.6,190.3 184.9,206.3 			"/>
		</g>
	</g>
</g>
<g>
	<g>
		<line class="st18" x1="164.7" y1="337.8" x2="200" y2="190.4"/>
		<g>
			<polygon class="st19" points="171.2,335.3 160.5,355 159.9,332.6 			"/>
		</g>
	</g>
</g>
<ellipse class="st14" cx="160.5" cy="355" rx="1.7" ry="6.7"/>
<g>
	<g>
		<line class="st20" x1="145.2" y1="200.2" x2="142.3" y2="202.8"/>
		<line class="st21" x1="136.4" y1="208.1" x2="44.2" y2="290.5"/>
		<line class="st20" x1="41.2" y1="293.1" x2="38.3" y2="295.7"/>
	</g>
</g>
<g>
	<g>
		<line class="st20" x1="24.8" y1="228" x2="28.3" y2="229.8"/>
		<line class="st22" x1="34.8" y1="233" x2="122.4" y2="276.7"/>
		<line class="st20" x1="125.7" y1="278.3" x2="129.1" y2="280.1"/>
	</g>
</g>
<line class="st23" x1="82.2" y1="149.3" x2="79.9" y2="306.7"/>
<path class="st24" d="M631.9,260.6c0.4-1.3,2.1-1.7,3.4-2.2c3.7-1.4,6.2-5.6,5.6-9.5c0-0.3-0.1-0.7-0.3-1c-0.3-0.3-0.7-0.5-1.1-0.6
	c-2.2-0.7-5.1-1.1-6.2,0.8c-0.5,0.8-0.4,1.9-0.6,2.8c-0.3,2-1.3,3.8-1.8,5.8c-0.8,3.3,0,6.9,2.1,9.5c0.8,0.9,1.7,1.7,2.9,1.9
	c1.2,0.2,2.5-0.4,2.9-1.5"/>
<path class="st24" d="M648.4,262.6c0,4.5,0,9,0,13.5"/>
<path class="st24" d="M554.7,408.1c2.4-1,4.3-3,6.1-4.8c1.2-1.3,2.5-2.6,2.9-4.3s-0.4-3.8-2.1-4.2c-1.5-0.3-2.9,0.7-4,1.8
	c-2.6,2.6-4.9,5.8-5,9.5c0,2.5,1.1,5.1,3.1,6.7s4.8,2.1,7.2,1.3"/>
<path class="st24" d="M584,416.3c-2.4,0.3-4.8,0.2-7.1-0.4c3.5-1.6,5.8-5.5,5.6-9.3c-1.7-0.4-3.4-0.8-5.1-0.3
	c-1.6,0.5-2.9,2.4-2.2,4"/>
<path class="st25" d="M126.1,323.1c-2-0.3-4-0.5-6-0.5c-0.6,0-1.1,0.1-1.6,0.4c-0.5,0.3-0.8,0.9-1,1.5c-0.5,1.5-0.9,3.1-1.1,4.7
	c0,0.2-0.1,0.5,0.1,0.7c0.1,0.2,0.4,0.3,0.6,0.4c1.4,0.5,2.7,1.1,4.1,1.6c0.3,0.1,0.6,0.2,0.8,0.1c0.1-0.1,0.3-0.2,0.4-0.3
	c1.9-2.1,3.4-4.5,4.5-7.1c1.1,4.3,1.6,8.8,1.7,13.2c0,1.5,0,3-0.7,4.4c-0.8,1.6-2.3,2.6-3.9,3.4c-1.1,0.5-2.3,0.9-3.4,0.5
	c-1.1-0.4-1.7-2.1-0.7-2.9"/>
<path class="st4" d="M200.1,190.4c0.4,0.3,1,0,1.2-0.5s0-1-0.1-1.5c-0.4,0.7-0.9,1.3-1.3,2"/>
<path class="st26" d="M171.4,225.8c3.3-2.2,6-5.3,7.8-8.8c0.6-1.3,1.2-2.6,1.1-4c-0.1-1.4-1.1-2.8-2.4-3.1
	c-3.2,4.8-3.7,10.8-4.2,16.5c-0.2,1.9-0.3,3.8,0.1,5.7c0.4,1.9,1.5,3.7,3.3,4.5"/>
<path class="st4" d="M83.6,257.5c-0.2-0.9-1.2-1.5-2.1-1.1s-1.3,1.4-0.8,2.2c0.5,0.8,1.6,1.1,2.5,1c1.4-0.1,3-1.4,2.4-2.7
	c-0.2-0.5-0.8-0.9-1.3-1.1c-1.6-0.8-3.3-1.4-5.1-1.7c-0.2,0.8-0.5,1.7-0.4,2.6c0.1,0.9,0.8,1.7,1.7,1.7c1.4,0,2-1.9,2-3.3"/>
<path class="st4" d="M71.3,230.3c-0.8-1.5-3.1-0.8-4.5,0.1c-1.7,1.2-3.2,2.7-4.2,4.5c-0.9,1.9-1.1,4.1-0.2,6
	c1.3,2.4,4.4,3.5,7.1,2.8c2.6-0.7,4.7-2.8,5.9-5.3c0.7-1.6,1.1-3.3,0.8-5s-1.5-3.2-3.1-3.7"/>
<g class="st0">
	<g>
		<g>
			<line class="st27" x1="539.9" y1="401" x2="178.1" y2="357.1"/>
			<g>
				<polygon class="st28" points="182.8,351.8 160.5,355 181.4,363.4 				"/>
			</g>
		</g>
	</g>
	<path class="st29" d="M344.5,392.6c-0.9-0.5-2.1-0.3-2.9,0.3c-0.9,0.6-1.5,1.5-2,2.3c-0.8,1.2-1.6,2.4-2,3.7
		c-0.1,0.4-0.2,0.9-0.1,1.3c0.1,0.3,0.3,0.6,0.6,0.9c1.3,1.3,3.4,1.4,5,0.6c1.6-0.8,2.7-2.5,3.1-4.2s0.5-3.6,0.3-5.4
		c-0.2-2.1-0.4-4.3-1.2-6.2c0.6,3.6,1.3,7.2,2.1,10.7c0.1,0.5,0.2,1,0.5,1.5c0.9,1.6,3.2,1.9,4.4,3.3"/>
	<path class="st29" d="M361.1,403.6c-1.3,0-2.6,0-3.8-0.1c0.6-2,1.3-3.9,1.9-5.9c0.1-0.2,0.1-0.5,0-0.7c-0.1-0.2-0.2-0.3-0.4-0.4
		c-0.8-0.3-1.7,0-2.1,0.8"/>
</g>
<g class="st0">
	<g>
		<g>
			<line class="st1" x1="200.6" y1="190.3" x2="524.8" y2="391.7"/>
			<g>
				<polygon class="st2" points="518.4,394.5 539.9,401 524.5,384.7 				"/>
			</g>
		</g>
	</g>
	<path class="st3" d="M374.4,271.5c0,5.8,0,11.5,0,17.3c-0.1-1.5,0.1-3,0.5-4.5c0.1-0.5,0.3-1,0.7-1.4c0.5-0.4,1.1-0.4,1.7-0.4
		c2.1,0.2,4.2,1.4,5.3,3.3c1.1,1.9,1,4.4-0.2,6.1"/>
	<path class="st3" d="M396.3,297.5c-2.4,0-4.7,0-7.1,0c2.1,0.3,3.6-2.1,4-4.2c0.2-1,0.3-2.1-0.4-2.9s-2.3-0.4-2.2,0.6"/>
</g>
<g>
	<g>
		<g>
			<line class="st1" x1="200.6" y1="190.3" x2="308.8" y2="210.4"/>
			<g>
				<polygon class="st2" points="303.9,215.4 326.3,213.6 306,203.9 				"/>
			</g>
		</g>
	</g>
	<path class="st3" d="M261.5,171c0.1,5.4,0.5,10.9,1.2,16.2c0.1-1.8,0.2-3.6,1.1-5.1s2.8-2.6,4.4-1.9c2.2,0.9,2.3,4,1.9,6.3"/>
	<path class="st3" d="M275.8,185.1c-0.2,3-0.1,6.1,0.5,9.1"/>
	<path class="st3" d="M271.9,161.8c-0.9-2.9-2.7-5.6-5.1-7.5c-0.8,3.2-2.4,6.2-4.5,8.7"/>
</g>
<g>
	<g>
		<g>
			<line class="st1" x1="200.6" y1="190.3" x2="276.2" y2="237.3"/>
			<g>
				<polygon class="st2" points="269.8,240.1 291.3,246.6 275.9,230.3 				"/>
			</g>
		</g>
	</g>
	<path class="st3" d="M228.5,238.1c0.4,7.4,0.9,14.8,1.3,22.2c-0.8-1.8-0.1-3.9,1.2-5.4c1.3-1.4,3.1-2.3,5-2.9
		c0.3-0.1,0.6-0.2,1-0.1c0.3,0.1,0.5,0.5,0.7,0.8c1.1,2.5,1.5,5.4,1.1,8.2"/>
	<path class="st3" d="M255.6,265.5c-2-0.2-4.1,0-6,0.5c-0.3-1.3,0.6-2.4,1.3-3.6c0.7-1.1,1-2.8,0-3.5c-1.2-0.9-3,0.5-3,2"/>
	<path class="st3" d="M237.3,234.5c-2.8-3.3-5.8-6.4-9.1-9.2c-1.4,4.3-4,8.3-7.5,11.2"/>
</g>
<g>
	<g>
		<line class="st30" x1="623.4" y1="272.1" x2="546.7" y2="386.3"/>
		<g>
			<polygon class="st31" points="544.1,379.8 536.9,401 553.8,386.3 			"/>
		</g>
	</g>
</g>
<path class="st32" d="M604.7,323.9c-3.3-1-7.1,2-7,5.4c0.1,3.4,4.1,6.2,7.3,5"/>
<path class="st33" d="M190,280.6c-1.9,1.2-3.9,2.4-5.3,4.2c-1.4,1.8-2.1,4.3-1.2,6.4c0.4,1,1.5,1.9,2.5,1.4c0.4-0.2,0.7-0.6,1-1
	c1.8-2.8,3.6-5.6,5.3-8.4c-1.7,3.8,0.1,8.8,3.9,10.6"/>
<g>
	<path class="st4" d="M273.8,203.9c0.1,0.5,0.1,0.9,0.2,1.4c0.5,5.9-1.2,11.9-4.7,16.7c-2,2.7-4.6,5-7.5,6.6"/>
	<path class="st4" d="M290.2,211.9c-1.5-0.6-3.3-0.4-4.8,0.3c-1.5,0.7-2.8,1.8-4,2.9c-1,0.9-2,2-2.6,3.2c-0.8,1.6-0.7,3.5-0.7,5.3
		c0,1.1,0.1,2.3,0.1,3.4c0,0.4,0,0.8,0.3,1.1c0.2,0.2,0.5,0.3,0.8,0.4c3.1,0.9,6.4,1.7,9.3,0.4c2.7-1.1,4.4-3.9,4.7-6.8
		s-0.7-5.8-2.3-8.2c-0.4-0.6-1.3-1.2-1.8-0.7"/>
	<path class="st4" d="M280.4,219.6c4.9-0.4,9.9,0.9,14,3.7"/>
	<path class="st4" d="M490.8,328.6c0.3,5.5-3.2,11.1-8.4,13.1c-1.6,0.6-3.4,0.9-5,0.4c-1.6-0.5-2.9-2.1-2.8-3.8
		c0.2-2.5,3.4-3.8,5.8-3c2.4,0.8,4,3,5.5,5c1.9,2.5,3.7,5.1,5.6,7.6"/>
	<path class="st4" d="M520.5,367.1c-0.2-3.7-0.3-7.4-0.5-11.1c-0.1-1.9-0.1-3.9,0.8-5.5s3.4-2.5,4.8-1.3c1.3,1.1,1.1,3.2,0,4.4
		s-2.8,1.7-4.4,1.9c1.1,0.6,2.4,0.7,3.5,1.2c1.1,0.5,2,1.9,1.4,3c-0.3,0.4-0.7,0.7-1.2,0.9c-1.2,0.6-2.5,1-3.8,1.2"/>
	<path class="st4" d="M270.6,334.4c2.2,5.1,2.3,11.1,0.8,16.4c-1.5,5.4-4.7,10.2-8.5,14.3"/>
	<path class="st4" d="M287.2,345.2c-2-1.2-4.7-0.2-6.2,1.6c-1.5,1.8-2,4.2-2.5,6.4c-0.2,1-0.4,2.3,0.4,3c0.5,0.4,1.1,0.5,1.7,0.5
		c2,0.2,4,0.4,5.8-0.5c2-1,3.2-3,4.1-5.1c0.6-1.7,1.1-3.5,0.5-5.2s-2.8-2.8-4.3-1.8"/>
	<path class="st4" d="M285.4,338.5c-0.2,8.7-0.4,17.4-0.6,26.1"/>
	<path class="st4" d="M555.7,305.8c2.1-0.3,4.1,0.6,5.7,2c1.6,1.4,2.7,3.2,3.7,5c0.8,1.3,1.5,2.7,1.6,4.2c0.1,1.5-0.5,3.2-1.8,3.8
		c-0.2,0.1-0.4,0.2-0.6,0.1c-0.2-0.1-0.3-0.2-0.3-0.4c-2.3-3.8-2.4-8.6-1.2-12.9c0.6-2.2,1.5-4.3,2.6-6.2"/>
	<path class="st4" d="M596.6,280.3c-0.2,2.2,1.2,4.4,2.9,5.8c0.7,0.6,1.5,1.1,2.4,1.3c1.8,0.4,3.7-0.5,4.8-1.9
		c1.1-1.5,1.4-3.4,1.1-5.2"/>
	<path class="st4" d="M601.9,279c0.4,5,1.5,9.9,3.2,14.5"/>
	<path class="st4" d="M585.8,261.7c-0.4,2.4-0.7,4.8-0.7,7.3c0,13.9,7,26.1,17.7,33.3"/>
	<path class="st4" d="M566.6,279.9c3,16.1,12.4,30,25.6,38.8"/>
	<path class="st4" d="M505.6,396.6c1.8-15,14.6-26.6,30.1-26.6c6.3,0,12.1,1.9,16.9,5.1"/>
	<path class="st4" d="M474.6,393.3c3.8-31,30.2-55,62.3-55c12.9,0,25,3.9,35,10.6"/>
</g>
<g>
	<g>
		<path class="st34" d="M129,194.4c-0.1-0.4,0.1-0.8,0.6-1c0,0,0.1,0,0.2,0c0.2,0,0.2,0,0.4,0.2c0.2,0.2,0.5,0.5,0.8,0.8
			c0.5,0.7,0.9,1.6,1.4,2.3c0.6,1,1.3,1.9,2.3,2.5c1.9,1.2,4.2,0.6,5.4-1.2c0.5-0.7,0.8-1.5,1.1-2.3c0.2-0.4,0.2-0.5,0.4-0.9
			c0.2-0.4,0.3-0.6,0.6-0.8c1.3-1.4-0.8-3.5-2.1-2.1c-0.5,0.5-0.9,1.1-1.2,1.8c-0.2,0.4-0.3,0.7-0.5,1.1c-0.1,0.2-0.1,0.3-0.2,0.5
			c0,0.1-0.2,0.5-0.1,0.3c-0.1,0.3-0.3,0.6-0.4,0.8c-0.1,0.2-0.2,0.3-0.4,0.4c-0.1,0.1-0.2,0.1-0.3,0.1c-0.3,0-0.4,0-0.7-0.2
			c-1.3-0.8-1.7-2.5-2.6-3.7c-1.1-1.5-2.5-2.7-4.5-2.5c-2.2,0.3-3.6,2.6-3,4.7C126.7,197.1,129.6,196.3,129,194.4L129,194.4z"/>
	</g>
</g>
<g>
	<g>
		<path class="st34" d="M132.7,187.4c-1.4,5.7-2.7,11.3-4.1,17c-0.5,1.9,2.4,2.7,2.9,0.8c1.4-5.7,2.7-11.3,4.1-17
			C136,186.3,133.1,185.5,132.7,187.4L132.7,187.4z"/>
	</g>
</g>
<g>
	<g>
		<path class="st34" d="M83.6,305.4c-0.4,2.4-0.3,5.9,2.5,6.8c1.6,0.5,3.2-0.3,4.1-1.5c1.1-1.4,1.3-3.3,1.3-5c-1,0.1-2,0.3-2.9,0.4
			c1,4,1.7,8,2.3,12.1c0.2,1.3,0.7,3.2,0.2,4.5c-0.5,1.4-2.1-0.2-2.8-0.8c-1.4-1.3-3.5,0.8-2.1,2.1c1.6,1.5,3.9,3,6.1,1.7
			c1.7-1,2.1-3.2,2-5c-0.2-2.5-0.6-5.1-1.1-7.5c-0.5-2.7-1-5.3-1.7-7.9c-0.4-1.7-2.9-1.3-2.9,0.4c0,0.9,0.1,1.9-0.3,2.7
			c-0.2,0.4-0.8,1.1-1.3,0.9c-0.8-0.4-0.5-2.4-0.4-3.1c0.1-0.8-0.2-1.6-1-1.8C84.8,304.1,83.8,304.6,83.6,305.4L83.6,305.4z"/>
	</g>
</g>
<g>
	<g>
		<path class="st34" d="M138.3,279.4c1.7,0,3.5,0,5.1,0.4c0.3,0.1,0.1,0.1,0,0c0,0-0.2-1.1-0.2-1.1c0,0,0.2-0.1,0,0
			c-0.3,0.2-0.5,0.4-0.8,0.6c-0.8,0.6-1.5,1.2-2.2,1.8c-1.3,1.1-2.6,2.3-3.9,3.5c-0.7,0.7-1.3,1.5-1.3,2.4c0,1.1,0.8,1.9,1.7,2.3
			c0.8,0.3,1.7,0.3,2.5,0.5c1.1,0.2,2.1,0.3,3.2,0.5c0.8,0.1,1.6-0.2,1.8-1c0.2-0.7-0.2-1.7-1-1.8c-0.9-0.1-1.8-0.3-2.7-0.4
			c-0.8-0.1-1.7-0.2-2.5-0.4c-0.1,0-0.1-0.1-0.2-0.1c-0.2,0,0,0,0,0c0.1,0.2,0.1,0.3,0.2,0.5c0.1,0.1-0.1,0.2,0.1,0
			c0,0,0.3-0.3,0.4-0.4c0.6-0.6,1.3-1.2,1.9-1.8c1.3-1.1,2.5-2.2,3.9-3.2c0.8-0.6,1.6-1.2,1.8-2.3c0.1-1.1-0.6-2-1.6-2.4
			c-0.9-0.3-2-0.3-2.9-0.4c-1.1-0.1-2.2-0.2-3.3-0.2c-0.8,0-1.5,0.7-1.5,1.5C136.8,278.7,137.5,279.4,138.3,279.4L138.3,279.4z"/>
	</g>
</g>
<g>
	<g>
		<path class="st34" d="M138.3,283.9c1.4,0.3,2.9,0.7,4.3,1c0.8,0.2,1.7-0.2,1.8-1c0.2-0.8-0.2-1.7-1-1.8c-1.4-0.3-2.9-0.7-4.3-1
			c-0.8-0.2-1.7,0.2-1.8,1C137.1,282.8,137.5,283.7,138.3,283.9L138.3,283.9z"/>
	</g>
</g>
<circle class="st7" cx="536.9" cy="401" r="3.5"/>
<circle class="st7" cx="625.3" cy="269" r="3.9"/>
<g>
	<g>
		<g>
			<line class="st27" x1="536.9" y1="401" x2="421.1" y2="386.7"/>
			<g>
				<polygon class="st28" points="425.7,381.4 403.5,384.5 424.3,392.9 				"/>
			</g>
		</g>
	</g>
	<path class="st29" d="M445.3,413.9c-0.9-0.5-2.1-0.3-2.9,0.3c-0.9,0.6-1.5,1.5-2,2.3c-0.8,1.2-1.6,2.4-2,3.7
		c-0.1,0.4-0.2,0.9-0.1,1.3c0.1,0.3,0.3,0.6,0.6,0.9c1.3,1.3,3.4,1.4,5,0.6c1.6-0.8,2.7-2.5,3.1-4.2c0.5-1.7,0.5-3.6,0.3-5.4
		c-0.2-2.1-0.4-4.3-1.2-6.2c0.6,3.6,1.3,7.2,2.1,10.7c0.1,0.5,0.2,1,0.5,1.5c0.9,1.6,3.2,1.9,4.4,3.3"/>
	<path class="st29" d="M462,424.9c-1.3,0-2.6,0-3.8-0.1c0.6-2,1.3-3.9,1.9-5.9c0.1-0.2,0.1-0.5,0-0.7c-0.1-0.2-0.2-0.3-0.4-0.4
		c-0.8-0.3-1.7,0-2.1,0.8"/>
	<path class="st29" d="M441.5,403.9c0.3-0.7,6.4-6.5,6.8-6.1c2.1,1.8,4.2,3.4,6.4,5"/>
</g>
<g>
	<g>
		<g>
			<line class="st27" x1="625.3" y1="269" x2="509.4" y2="290.4"/>
			<g>
				<polygon class="st28" points="512.2,284 492,293.7 514.3,295.4 				"/>
			</g>
		</g>
	</g>
	<path class="st29" d="M504.6,269.6c-1.2-0.1-2.4,0.7-3,1.7c-0.6,1-0.9,2.3-1.1,3.5c-0.1,0.6-0.2,1.2,0.1,1.7c0.2,0.5,0.8,0.8,1.2,1
		c1.9,0.9,4.5,1.2,6-0.3c0.6-0.6,0.9-1.3,1.1-2.1c0.4-1.3,0.8-2.6,0.7-3.9c0-1.6-0.6-3.2-1.3-4.6c-0.9-1.9-2-3.7-3.4-5.4
		c1.8,2.6,3.4,5.4,4.5,8.4c0.5,1.2,0.9,2.5,1.7,3.6s2.1,1.8,3.5,1.6"/>
	<path class="st29" d="M518.2,269.3c0.1,1.3,0.7,2.7,1.6,3.6"/>
	<path class="st29" d="M498.5,261.6c0.1-0.8,6-8.3,6.5-8.1c2.5,1,5.1,1.9,7.7,2.6"/>
</g>
<g class="st0">
	<g>
		<g>
			<line class="st27" x1="625.3" y1="269" x2="178" y2="351.8"/>
			<g>
				<polygon class="st28" points="180.8,345.3 160.5,355 182.9,356.8 				"/>
			</g>
		</g>
	</g>
	<path class="st29" d="M422,289.3c-1.2-0.1-2.4,0.7-3,1.7c-0.6,1-0.9,2.3-1.1,3.5c-0.1,0.6-0.2,1.2,0.1,1.7c0.2,0.5,0.8,0.8,1.2,1
		c1.9,0.9,4.5,1.2,6-0.3c0.6-0.6,0.9-1.3,1.1-2.1c0.4-1.3,0.8-2.6,0.7-3.9c0-1.6-0.6-3.2-1.3-4.6c-0.9-1.9-2-3.7-3.4-5.4
		c1.8,2.6,3.4,5.4,4.5,8.4c0.5,1.2,0.9,2.5,1.7,3.6s2.1,1.8,3.5,1.6"/>
	<path class="st29" d="M435.5,288.9c0.1,1.3,0.7,2.7,1.6,3.6"/>
</g>
</svg>
