<?xml version="1.0" encoding="utf-8"?>
<!-- Generator: Adobe Illustrator 27.0.0, SVG Export Plug-In . SVG Version: 6.00 Build 0)  -->
<svg version="1.1" id="Layer_1" xmlns="http://www.w3.org/2000/svg" xmlns:xlink="http://www.w3.org/1999/xlink" x="0px" y="0px"
	 width="1000px" height="1000px" viewBox="0 0 1000 1000" style="enable-background:new 0 0 1000 1000;" xml:space="preserve">
<path style="fill-rule:evenodd;clip-rule:evenodd;fill:none;stroke:#433E4C;stroke-width:4;stroke-miterlimit:10;" d="M30,273.3V60
	c0-16.6,13.4-30,30-30h213.3c16.6,0,30,13.4,30,30v213.3c0,16.6-13.4,30-30,30H60C43.4,303.3,30,289.9,30,273.3z"/>
<path style="fill-rule:evenodd;clip-rule:evenodd;fill:#433E4C;" d="M363.3,273.3V60c0-16.6,13.4-30,30-30h213.3
	c16.6,0,30,13.4,30,30v213.3c0,16.6-13.4,30-30,30H393.3C376.8,303.3,363.3,289.9,363.3,273.3z"/>
<path style="fill-rule:evenodd;clip-rule:evenodd;fill:#433E4C;" d="M30,606.7V393.3c0-16.6,13.4-30,30-30h213.3
	c16.6,0,30,13.4,30,30v213.3c0,16.6-13.4,30-30,30H60C43.4,636.7,30,623.2,30,606.7z"/>
<path style="fill-rule:evenodd;clip-rule:evenodd;fill:#433E4C;" d="M363.3,606.7V393.3c0-16.6,13.4-30,30-30h213.3
	c16.6,0,30,13.4,30,30v213.3c0,16.6-13.4,30-30,30H393.3C376.8,636.7,363.3,623.2,363.3,606.7z"/>
<path style="fill-rule:evenodd;clip-rule:evenodd;fill:#433E4C;" d="M696.7,273.3V60c0-16.6,13.4-30,30-30H940c16.6,0,30,13.4,30,30
	v213.3c0,16.6-13.4,30-30,30H726.7C710.1,303.3,696.7,289.9,696.7,273.3z"/>
<path style="fill-rule:evenodd;clip-rule:evenodd;fill:#433E4C;" d="M696.7,606.7V393.3c0-16.6,13.4-30,30-30H940
	c16.6,0,30,13.4,30,30v213.3c0,16.6-13.4,30-30,30H726.7C710.1,636.7,696.7,623.2,696.7,606.7z"/>
<path style="fill-rule:evenodd;clip-rule:evenodd;fill:#433E4C;" d="M30,940V726.7c0-16.6,13.4-30,30-30h213.3c16.6,0,30,13.4,30,30
	V940c0,16.6-13.4,30-30,30H60C43.4,970,30,956.6,30,940z"/>
<path style="fill-rule:evenodd;clip-rule:evenodd;fill:#433E4C;" d="M363.3,940V726.7c0-16.6,13.4-30,30-30h213.3
	c16.6,0,30,13.4,30,30V940c0,16.6-13.4,30-30,30H393.3C376.8,970,363.3,956.6,363.3,940z"/>
<path style="fill-rule:evenodd;clip-rule:evenodd;fill:#433E4C;" d="M696.7,940V726.7c0-16.6,13.4-30,30-30H940
	c16.6,0,30,13.4,30,30V940c0,16.6-13.4,30-30,30H726.7C710.1,970,696.7,956.6,696.7,940z"/>
<g>
	<g>
		<path style="fill:#D292FC;" d="M182.5,157c0,0,8.4,19.7,3.3,30.5c-1.3,2.9-0.4,9,1.7,16.5c2.1,7.5,2.8,12,8.5,19.4
			c9.8,12.7,1.5,18,14.2,28.6c-13.1-5.1-11.9-6-14.6-17.3c-1-4.2-2.5-8.1-6.8-12.6c-2.5-2.6-4.5-8.8-6.2-15.8
			c-0.5,3.2,0.1,12.9,6.2,22.2c5.1,7.8,1.2,17.1,7.3,23c-9.1-4.8-5.5-13-11.2-19.9c-8.6-10.4-8.3-27.4-8.3-27.4
			c1,6.2,0.2,19.5,2.2,32.2c2.5,15.5,9.3,21.4-4.9,36c2.4-4.4,1.9-6.3,3.6-11.6c3.2-10.4-3.7-11.3-5-24.8c-1.7-17-3.5-33.8-3.5-33.8
			s1.7,10.8-0.3,25.3c-1.4,10.8,2.3,15.7-4.4,34.5c1.7-16.4-2.8-23.2-1.9-34.3c1.1-14.7-1.1-25.6-1.1-25.6s-0.6,11.7-2.8,22.5
			c-1.3,6.5-5,15-5.6,19.7c-0.6,4.7,1.8,12.6,2.2,17.3c0.7,9.3,0.9,10.2,0.9,10.2s-3.2-7.5-5.7-15.8c-1.3-4.2-2.1-7.3-1.5-12.6
			c0.6-5.3,2.1-10.2,2.7-14.8c1.1-9,1.4-21.7,1.4-21.7c-1.3,7-4.5,14.4-6.7,21.1c-3,9.2-0.7,17.8-3.7,23.9
			c0.4-9.1-2.9-16.5-1.2-24.2c1.4-6.3,3.5-13.3,3.5-21.3c0,0-3.7,6.4-5.5,17.2c-1,6-3.8,11.2-6.2,17.8c-2.4,6.5-10.2,10.2-14.2,17.6
			c-1.1-7.8,7.4-12.8,10.1-19c1.8-4.2,4-11.7,5.3-18.6c2.7-14.5,9.2-29.4,6.6-34c-5.9-10.4,2.9-30.3,2.9-30.3S158.4,163.9,182.5,157
			z"/>
		<path style="fill:#D292FC;" d="M174,273.6c-0.2,0-0.5-0.1-0.7-0.2c-0.5-0.3-0.6-1-0.3-1.5c1.4-2.6,1.8-4.3,2.3-6.5
			c0.3-1.3,0.6-2.9,1.3-4.9c1.7-5.4,0.5-7.8-1.3-11.6c-1.4-3-3.2-6.6-3.8-12.8c-0.4-3.9-0.8-7.8-1.2-11.4c-0.1,1-0.2,2-0.4,3
			c-0.5,3.5-0.4,6.3-0.3,9.3c0.2,6.2,0.4,12.6-4.2,25.4c-0.2,0.6-0.8,0.9-1.3,0.7c-0.6-0.1-1-0.7-0.9-1.2c1-9.1,0-15.3-0.9-20.7
			c-0.7-4.4-1.4-8.5-1-13.5c0.4-5.2,0.4-10,0.2-14c-0.4,3.5-1,7.4-1.8,11.2c-0.6,3.2-1.8,6.8-3,10.3c-1.2,3.6-2.3,7-2.6,9.3
			c-0.3,2.8,0.5,7,1.2,10.7c0.5,2.4,0.9,4.6,1,6.4c0.7,8.8,0.9,10,0.9,10.1c0.1,0.6-0.2,1.1-0.8,1.3c-0.6,0.2-1.2-0.1-1.4-0.7
			c0-0.1-3.2-7.7-5.8-15.9c-1.3-4.1-2.1-7.5-1.5-13.1c0.3-2.9,0.9-5.7,1.5-8.3c0.5-2.3,0.9-4.5,1.2-6.5c0.4-3.5,0.7-7.7,1-11.4
			c-0.6,1.6-1.1,3.2-1.7,4.8c-0.8,2.2-1.6,4.4-2.3,6.5c-1.4,4.4-1.6,8.6-1.8,12.6c-0.2,4.2-0.4,8.1-2,11.4c-0.2,0.5-0.8,0.7-1.3,0.6
			c-0.5-0.1-0.9-0.6-0.9-1.2c0.2-3.8-0.4-7.4-0.9-10.8c-0.7-4.6-1.3-9-0.3-13.5c0.3-1.2,0.5-2.3,0.8-3.5c0.8-3.5,1.7-7.1,2.2-11
			c-1,2.8-2.1,6.5-2.8,10.9c-0.7,4.2-2.3,8.1-4,12.2c-0.8,1.9-1.6,3.8-2.3,5.8c-1.3,3.7-4.2,6.4-7.2,9.3c-2.6,2.5-5.3,5.1-7.1,8.5
			c-0.2,0.4-0.7,0.7-1.2,0.6c-0.5-0.1-0.9-0.5-0.9-1c-0.8-5.4,2.6-9.5,5.8-13.4c1.8-2.1,3.4-4.1,4.4-6.3c1.9-4.4,4.1-11.9,5.3-18.3
			c1-5.3,2.5-10.8,3.9-15.6c2.2-7.8,4.2-15.1,2.8-17.6c-6.1-10.8,2.5-30.5,2.9-31.3c0.1-0.3,0.4-0.5,0.6-0.6c0.3-0.1,0.6-0.1,0.9,0
			c0.1,0.1,14.5,6.3,37.9-0.3c0.6-0.2,1.2,0.1,1.4,0.7c0.4,0.8,8.5,20.3,3.3,31.5c-0.6,1.3-1.2,5.2,1.7,15.7c0.3,1,0.5,1.9,0.8,2.8
			c1.6,5.8,2.7,10,7.5,16.2c4.6,6,5.4,10.5,6,14.4c0.8,4.5,1.4,8.4,8,13.9c0.4,0.4,0.5,1,0.3,1.5c-0.3,0.5-0.9,0.7-1.4,0.5
			c-11.8-4.6-12.5-5.9-14.6-14.9c-0.2-1-0.5-2.1-0.8-3.2c-1.1-4.4-2.5-7.9-6.5-12.1c-0.8-0.8-1.6-2-2.3-3.5c0.9,2.7,2.3,5.6,4.2,8.5
			c2.5,3.9,2.9,8,3.4,12c0.4,4.3,0.8,8,3.8,10.8c0.4,0.4,0.5,1,0.1,1.5c-0.3,0.5-1,0.6-1.5,0.3c-5.7-3.1-6.8-7.5-7.9-11.7
			c-0.7-2.9-1.4-5.8-3.6-8.5c-2.4-2.9-4.1-6.2-5.3-9.6c0.2,4.3,0.6,8.9,1.3,13.4c0.6,3.4,1.3,6.5,2,9.1c2.4,9.4,4.2,16.1-7.3,27.9
			C174.6,273.4,174.3,273.6,174,273.6z M170.5,205.4c0.6,5.7,2,18.2,3.2,30.6c0.6,5.7,2.2,9.1,3.6,12c1.8,3.8,3.3,7,1.4,13.2
			c-0.6,1.9-0.9,3.4-1.2,4.7c-0.1,0.4-0.2,0.7-0.2,1.1c6-8,4.7-13.2,2.6-21c-0.7-2.7-1.5-5.8-2.1-9.4c-1.2-7.6-1.4-15.4-1.6-21.7
			c0-1.1-0.1-2.1-0.1-3.2c-0.6-4.2-0.5-7.2-0.5-7.5c0-0.6,0.5-1.1,1.1-1.1c0.5,0,1.1,0.4,1.2,1c0.3,1.9,0.4,4.3,0.5,7.2
			c0.8,5.7,2.7,13.8,7.5,19.7c2.5,3.1,3.3,6.3,4.1,9.4c0.5,1.9,0.9,3.7,1.7,5.3c-0.4-1.8-0.6-3.7-0.8-5.5c-0.4-3.7-0.8-7.5-3-10.9
			c-6.5-10.1-6.8-20-6.4-23c0.1-0.5,0.5-1,1.1-1c0.6,0,1,0.3,1.2,0.9c2,8.2,3.9,13.2,5.9,15.3c4.3,4.5,5.9,8.5,7,13.1
			c0.3,1.2,0.5,2.3,0.8,3.3c1.5,6.5,1.9,8.3,7.7,11c-3.3-4.1-3.9-7.5-4.5-11.1c-0.6-3.9-1.3-7.9-5.6-13.4c-5.1-6.6-6.2-11-7.9-17
			c-0.2-0.9-0.5-1.8-0.8-2.8c-2.5-8.7-3-14.3-1.6-17.3c4.2-8.9-1.4-24.7-3-28.7c-20.2,5.5-33.5,1.8-37.3,0.4
			c-1.7,4.1-7.4,19.8-2.6,28.2c1.9,3.4-0.1,10.4-2.6,19.4c-1.3,4.8-2.9,10.2-3.8,15.4c-1.2,6.6-3.5,14.3-5.4,18.8
			c-1.1,2.4-2.9,4.7-4.7,6.8c-2,2.4-4,4.7-4.9,7.3c1.5-1.9,3.3-3.5,4.9-5.2c2.8-2.7,5.4-5.2,6.6-8.4c0.8-2.1,1.6-4,2.3-5.9
			c1.6-4,3.2-7.7,3.8-11.7c1.8-10.9,5.5-17.3,5.6-17.6c0.3-0.4,0.8-0.7,1.3-0.5c0.5,0.1,0.9,0.6,0.9,1.1c0,6.7-1.4,12.7-2.7,18.1
			c-0.3,1.2-0.6,2.4-0.8,3.5c-0.9,4.1-0.3,8.3,0.3,12.7c0.1,0.8,0.2,1.7,0.4,2.6c0-0.8,0.1-1.6,0.1-2.4c0.2-4,0.4-8.5,1.9-13.2
			c0.7-2.1,1.5-4.3,2.3-6.6c1.7-4.8,3.5-9.7,4.4-14.4c0.1-0.6,0.7-1,1.3-0.9c0.6,0.1,1.1,0.6,1,1.2c0,0.1-0.4,12.8-1.4,21.8
			c-0.3,2.2-0.7,4.4-1.2,6.7c-0.6,2.6-1.1,5.3-1.4,8.1c-0.6,5.2,0.2,8.2,1.5,12.2c0.9,2.8,1.8,5.6,2.7,8c0-0.6-0.1-1.3-0.2-2
			c-0.1-1.7-0.6-3.9-1-6.1c-0.8-4.1-1.6-8.3-1.2-11.4c0.3-2.6,1.5-6.1,2.7-9.8c1.1-3.4,2.3-6.9,2.9-10c2.1-10.6,2.8-22.2,2.8-22.4
			c0-0.6,0.5-1,1.1-1.1c0.6,0,1.1,0.4,1.2,0.9c0.1,0.5,2.2,11.2,1.1,25.9c-0.4,4.7,0.3,8.7,1,12.9c0.6,3.6,1.2,7.4,1.3,12.2
			c1.7-7,1.6-11.6,1.4-16c-0.1-2.9-0.2-6,0.3-9.7c1.3-9.9,0.9-18.1,0.6-22.2c-0.2-1.8-0.3-2.9-0.3-2.9c-0.1-0.6,0.4-1.2,1-1.3
			c0.6-0.1,1.2,0.3,1.3,1C170.2,202.2,170.4,203.4,170.5,205.4z"/>
	</g>
	<g>
		<g>
			<path style="fill:#D292FC;" d="M184.5,112c0,0,24.3-17.7,11.5-30.8l-35.7-34.6c0,0-18.1,15.4-37.4,34.6c0,0-25.7,23.9,15.7,44.3
				c-2.7,24.9,1.1,32.6,1.1,32.6s20.6,7.7,46.3,0c0,0,4-14.5-1.6-46.1"/>
			<path style="fill:#C17AF9;" d="M162.5,162.7c-13.5,0-22.6-3.3-23.2-3.5c-0.3-0.1-0.5-0.3-0.6-0.6c-0.2-0.3-3.8-8.1-1.3-32.4
				c-14.1-7.1-22-15.4-23.3-24.8c-1.7-11.8,7.7-20.7,8.1-21.1c19-19,37.2-34.5,37.4-34.6c0.4-0.4,1.1-0.4,1.5,0.1l35.7,34.6
				c3,3.1,4.3,6.6,4,10.5c-0.9,10.1-12.6,19.7-15.2,21.7c5.4,31,1.6,45.3,1.5,45.9c-0.1,0.4-0.4,0.7-0.8,0.8
				C177.6,161.9,169.4,162.7,162.5,162.7z M140.6,157.2c3.2,1,21.8,6.6,44.4,0c0.6-3.1,3.1-17.6-1.8-45c-0.1-0.6,0.2-1.1,0.8-1.3
				c1.6-1.2,13.7-10.8,14.5-20.2c0.3-3.3-0.8-6.1-3.3-8.7l-34.9-33.9c-3.7,3.2-19.8,17.1-36.5,33.9c-0.1,0.1-8.9,8.5-7.4,19.1
				c1.3,8.7,8.9,16.6,22.8,23.4c0.4,0.2,0.7,0.7,0.6,1.2C137.6,146.7,139.9,155.3,140.6,157.2z"/>
		</g>
		<g>
			<path style="fill:#C17AF9;" d="M162.5,162.7c-13.5,0-22.6-3.3-23.2-3.5c-0.3-0.1-0.6-0.4-0.7-0.8c-0.1-0.2-3.3-11.8-1.4-32.3
				c-14-7.1-21.8-15.4-23.1-24.7c-1.7-11.8,7.7-20.7,8.1-21.1c19-19,37.2-34.5,37.4-34.6c0.3-0.2,0.6-0.3,0.9-0.3
				c0.3,0.1,0.6,0.3,0.8,0.6c18.7,32,24.7,60.8,26.5,79.3c1.9,20.1-0.6,32.5-0.7,33c-0.1,0.4-0.4,0.8-0.8,0.9
				C177.6,161.9,169.4,162.7,162.5,162.7z M140.7,157.3c3.4,1.1,21.9,6.5,44.3,0c1-6.1,7.3-52.8-25-108.8
				c-4.1,3.6-19.9,17.3-36.2,33.6c-0.1,0.1-8.9,8.5-7.4,19.1c1.2,8.3,8.3,15.9,21.1,22.5c1.7-15.2,6.2-34.9,16.6-58.3
				c0.3-0.6,0.9-0.8,1.5-0.6c0.6,0.3,0.8,0.9,0.6,1.5c-10.6,23.7-15,43.6-16.6,58.7c0.2,0.3,0.2,0.7,0.1,1.1
				c-0.1,0.1-0.1,0.2-0.2,0.3C137.9,143.9,140.1,154.7,140.7,157.3z"/>
		</g>
		<g>
			<path style="fill:#C17AF9;" d="M184.5,113.2c-0.4,0-0.7-0.2-0.9-0.5c-0.4-0.5-0.3-1.2,0.3-1.6c0.1-0.1,13.9-10.2,14.7-20.3
				c0.3-3.3-0.8-6.1-3.3-8.7l-35.7-34.6c-0.5-0.4-0.5-1.2,0-1.6c0.4-0.5,1.2-0.5,1.6,0l35.7,34.6c3,3.1,4.3,6.6,4,10.5
				c-0.9,11.1-15.1,21.6-15.7,22C184.9,113.1,184.7,113.2,184.5,113.2z"/>
		</g>
	</g>
</g>
<g>
	<g>
		<circle style="fill:#FEFDFF;" cx="146.8" cy="180" r="10.6"/>
		<path style="fill:#9E63D6;" d="M146.8,191.9c-6.6,0-11.9-5.3-11.9-11.9s5.3-11.9,11.9-11.9s11.9,5.3,11.9,11.9
			S153.4,191.9,146.8,191.9z M146.8,170.8c-5.1,0-9.2,4.1-9.2,9.2s4.1,9.2,9.2,9.2s9.2-4.1,9.2-9.2S151.9,170.8,146.8,170.8z"/>
	</g>
	<g>
		<path d="M151.5,179.4c-1.2,0-2.2-1-2.2-2.2c0-0.4,0.2-0.8,0.4-1.2c-0.8-0.6-1.8-1-2.9-1c-2.7,0-5,2.2-5,5c0,2.7,2.2,5,5,5
			c2.7,0,5-2.2,5-5c0-0.2-0.1-0.4-0.1-0.6C151.6,179.4,151.6,179.4,151.5,179.4z"/>
	</g>
</g>
<g>
	<g>
		<circle style="fill:#FEFDFF;" cx="180" cy="180" r="10.6"/>
		<path style="fill:#9E63D6;" d="M180,191.9c-6.6,0-11.9-5.3-11.9-11.9s5.3-11.9,11.9-11.9c6.6,0,11.9,5.3,11.9,11.9
			S186.6,191.9,180,191.9z M180,170.8c-5.1,0-9.2,4.1-9.2,9.2s4.1,9.2,9.2,9.2c5.1,0,9.2-4.1,9.2-9.2S185.1,170.8,180,170.8z"/>
	</g>
	<g>
		<path d="M184.7,179.4c-1.2,0-2.2-1-2.2-2.2c0-0.4,0.2-0.8,0.4-1.2c-0.8-0.6-1.8-1-2.9-1c-2.7,0-5,2.2-5,5c0,2.7,2.2,5,5,5
			c2.7,0,5-2.2,5-5c0-0.2-0.1-0.4-0.1-0.6C184.8,179.4,184.8,179.4,184.7,179.4z"/>
	</g>
</g>
<g>
	<g>
		<path style="fill:#6E4199;" d="M131.7,183.4c-0.8,0-1.5-0.7-1.5-1.5v-3.6c0-0.8,0.7-1.5,1.5-1.5c0.8,0,1.5,0.7,1.5,1.5v3.6
			C133.2,182.7,132.5,183.4,131.7,183.4z"/>
	</g>
	<g>
		<path style="fill:#6E4199;" d="M194.6,183.4c-0.8,0-1.5-0.7-1.5-1.5v-3.6c0-0.8,0.7-1.5,1.5-1.5s1.5,0.7,1.5,1.5v3.6
			C196.1,182.7,195.4,183.4,194.6,183.4z"/>
	</g>
	<g>
		<path style="fill:#6E4199;" d="M146.8,194.4c-7.9,0-14.4-6.4-14.4-14.4c0-7.9,6.4-14.4,14.4-14.4s14.4,6.4,14.4,14.4
			C161.2,187.9,154.7,194.4,146.8,194.4z M146.8,168.7c-6.2,0-11.3,5.1-11.3,11.3c0,6.2,5.1,11.3,11.3,11.3
			c6.2,0,11.3-5.1,11.3-11.3C158.1,173.8,153,168.7,146.8,168.7z"/>
	</g>
	<g>
		<path style="fill:#6E4199;" d="M179.4,194.4c-7.9,0-14.4-6.4-14.4-14.4c0-7.9,6.4-14.4,14.4-14.4c7.9,0,14.4,6.4,14.4,14.4
			C193.8,187.9,187.4,194.4,179.4,194.4z M179.4,168.7c-6.2,0-11.3,5.1-11.3,11.3c0,6.2,5.1,11.3,11.3,11.3
			c6.2,0,11.3-5.1,11.3-11.3C190.7,173.8,185.7,168.7,179.4,168.7z"/>
	</g>
	<g>
		<path style="fill:#6E4199;" d="M166.6,181.5h-7c-0.8,0-1.5-0.7-1.5-1.5s0.7-1.5,1.5-1.5h7c0.8,0,1.5,0.7,1.5,1.5
			S167.5,181.5,166.6,181.5z"/>
	</g>
</g>
<g id="line">
	<g>
		<path style="fill:#FFFFFF;" d="M562.4,128.8H454.5c-1.4,0-2.5-1.1-2.5-2.5c0-1.4,1.1-2.5,2.5-2.5h107.9c1.4,0,2.5,1.1,2.5,2.5
			C564.8,127.7,563.7,128.8,562.4,128.8z"/>
	</g>
	<g>
		<path style="fill:#FFFFFF;" d="M562.4,109.2H454.5c-1.4,0-2.5-1.1-2.5-2.5c0-1.4,1.1-2.5,2.5-2.5h107.9c1.4,0,2.5,1.1,2.5,2.5
			C564.8,108.1,563.7,109.2,562.4,109.2z"/>
	</g>
	<g>
		<path style="fill:#FFFFFF;" d="M496.2,158c-1.2,0-2.2-1-2.3-2.2l-0.4-54.4c0-1.2,1-2.3,2.2-2.3c1.2,0.1,2.3,1,2.3,2.2l0.4,54.4
			C498.4,157,497.4,158,496.2,158C496.2,158,496.2,158,496.2,158z"/>
	</g>
	<g>
		<path style="fill:#FFFFFF;" d="M481.4,158c-1.2,0-2.2-1-2.3-2.2l-0.4-54.4c0-1.2,1-2.3,2.2-2.3c1.3,0.1,2.3,1,2.3,2.2l0.4,54.4
			C483.7,157,482.7,158,481.4,158C481.5,158,481.4,158,481.4,158z"/>
	</g>
	<g>
		<path style="fill:#FFFFFF;" d="M464.3,158c-1.2,0-2.2-1-2.3-2.2l-0.4-54.4c0-1.2,1-2.3,2.2-2.3c0,0,0,0,0,0c1.2,0,2.2,1,2.3,2.2
			l0.4,54.4C466.5,157,465.5,158,464.3,158C464.3,158,464.3,158,464.3,158z"/>
	</g>
	<g>
		<path style="fill:#FFFFFF;" d="M479.3,234.2c-3.5,0-6.5-2.8-6.6-6.4l0-11.9c-23.4-10-39.1-30.9-41.2-54.7c0-0.2,0-0.4,0-0.6
			c0-4,3.3-7.3,7.3-7.3c0,0,0,0,0,0h122.6c0.2,0,0.3,0,0.5,0c1.9,0.1,3.6,1,4.8,2.4c1.2,1.4,1.9,3.2,1.7,5.1c0,0,0,0,0,0
			c-1.8,26.2-17.6,47.8-41.2,56.7v10.2c-0.1,3.7-3.2,6.6-6.9,6.5h-40.9C479.4,234.2,479.4,234.2,479.3,234.2z M438.8,158.2
			c-1.3,0-2.4,1.1-2.4,2.4c2,22.7,17.2,42.3,39.7,51.4c0.9,0.4,1.5,1.3,1.5,2.3v13.5c0,0.9,0.8,1.8,1.8,1.6h41.1
			c1,0,1.8-0.7,1.9-1.7l0-11.8c0-1,0.7-2,1.6-2.3c22.7-7.9,37.8-28.2,39.6-53c0-0.6-0.2-1.1-0.5-1.6c-0.4-0.4-0.9-0.7-1.5-0.7
			L438.8,158.2C438.8,158.2,438.8,158.2,438.8,158.2z M566,160.7L566,160.7L566,160.7z"/>
	</g>
</g>
<g id="line_00000086657611638801983290000007546022029505687223_">
	<g>
		<path style="fill:#FFFFFF;" d="M827.7,226.9h-25.2c-1.5,0-2.8-1.3-2.8-2.8v-44.8c0-1.5,1.3-2.8,2.8-2.8h25.2
			c1.5,0,2.8,1.3,2.8,2.8v44.8C830.5,225.6,829.3,226.9,827.7,226.9z M805.3,221.3h19.6v-39.2h-19.6V221.3z"/>
	</g>
	<g>
		<path style="fill:#FFFFFF;" d="M866.9,201.7h-22.4c-1.5,0-2.8-1.3-2.8-2.8v-19.6c0-1.5,1.3-2.8,2.8-2.8h22.4
			c1.5,0,2.8,1.3,2.8,2.8v19.6C869.7,200.4,868.5,201.7,866.9,201.7z M847.3,196.1h16.8v-14h-16.8V196.1z"/>
	</g>
	<g>
		<path style="fill:#FFFFFF;" d="M880.9,159.7h-95.2c-1.5,0-2.8-1.3-2.8-2.8v-2.8c0-0.7,0.3-1.5,0.8-2l44.8-44.8
			c1.1-1,2.7-1.1,3.8-0.1l50.4,44.8c0.6,0.5,0.9,1.3,0.9,2.1v2.8C883.7,158.4,882.5,159.7,880.9,159.7z M789.7,154.1h87l-46.1-41
			L789.7,154.1z"/>
	</g>
	<g>
		<path style="fill:#FFFFFF;" d="M880.9,226.9h-95.2c-1.5,0-2.8-1.3-2.8-2.8v-67.2c0-1.5,1.3-2.8,2.8-2.8h95.2
			c1.5,0,2.8,1.3,2.8,2.8v67.2C883.7,225.6,882.5,226.9,880.9,226.9z M788.5,221.3h89.6v-61.6h-89.6V221.3z"/>
	</g>
	<g>
		<path style="fill:#FFFFFF;" d="M799.7,142.9c-0.4,0-0.7-0.1-1.1-0.2c-1-0.4-1.7-1.5-1.7-2.6v-25.2c0-1.5,1.3-2.8,2.8-2.8h14
			c1.5,0,2.8,1.3,2.8,2.8v11.2c0,0.7-0.3,1.5-0.8,2l-14,14C801.2,142.6,800.5,142.9,799.7,142.9z M802.5,117.7v15.6l8.4-8.4v-7.2
			H802.5z M813.7,126.1L813.7,126.1L813.7,126.1z"/>
	</g>
</g>
<g id="line_00000047748173988687140590000009380573649185460409_">
	<g>
		<path style="fill:#FFFFFF;" d="M792.1,532.4c-6.5,0-11.8-5.3-11.8-11.8c0-6.5,5.3-11.8,11.8-11.8c6.5,0,11.8,5.3,11.8,11.8
			C803.9,527.1,798.6,532.4,792.1,532.4z M792.1,514.7c-3.2,0-5.9,2.6-5.9,5.9s2.6,5.9,5.9,5.9s5.9-2.6,5.9-5.9
			S795.4,514.7,792.1,514.7z"/>
	</g>
	<g>
		<circle style="fill:#FFFFFF;" cx="842.2" cy="491.2" r="8.8"/>
	</g>
	<g>
		<path style="fill:#FFFFFF;" d="M901,532.4c-6.5,0-11.8-5.3-11.8-11.8c0-6.5,5.3-11.8,11.8-11.8c6.5,0,11.8,5.3,11.8,11.8
			C912.8,527.1,907.5,532.4,901,532.4z M901,514.7c-3.2,0-5.9,2.6-5.9,5.9s2.6,5.9,5.9,5.9s5.9-2.6,5.9-5.9S904.3,514.7,901,514.7z"
			/>
	</g>
	<g>
		<path style="fill:#FFFFFF;" d="M924.6,523.5h-4c-1.6,0-2.9-1.3-2.9-2.9c0-1.6,1.3-2.9,2.9-2.9h1.1v-44.1h-29.4v4.6l8.5,8.3
			c1.2,1.1,1.2,3,0.1,4.2c-1.1,1.2-3,1.2-4.2,0.1l-9.4-9.1c-0.6-0.6-0.9-1.3-0.9-2.1v-8.8c0-1.6,1.3-2.9,2.9-2.9h35.3
			c1.6,0,2.9,1.3,2.9,2.9v50C927.5,522.2,926.2,523.5,924.6,523.5z"/>
	</g>
	<g>
		<path style="fill:#FFFFFF;" d="M771.5,529.4h-29.4c-1.6,0-2.9-1.3-2.9-2.9v-11.8c0-1.1,0.7-2.2,1.7-2.7
			c1.6-0.7,39.3-17.9,77.8-17.9h58.9c1.6,0,2.9,1.3,2.9,2.9c0,1.6-1.3,2.9-2.9,2.9h-58.9c-32.7,0-65.8,13.3-73.6,16.6v6.9h25.3
			l2.1-2.1c1.1-1.1,3-1.1,4.2,0c1.1,1.1,1.1,3,0,4.2l-2.9,2.9C773.1,529.1,772.3,529.4,771.5,529.4z"/>
	</g>
	<g>
		<path style="fill:#FFFFFF;" d="M883.4,529.4h-70.6c-1.6,0-2.9-1.3-2.9-2.9c0-1.6,1.3-2.9,2.9-2.9h70.6c1.6,0,2.9,1.3,2.9,2.9
			C886.3,528.1,885,529.4,883.4,529.4z"/>
	</g>
	<g>
		<path style="fill:#FFFFFF;" d="M889.3,500c-0.9,0-1.7-0.4-2.3-1.1c-8.7-10.8-28.5-13-36-13.5v8.7c0,1.6-1.3,2.9-2.9,2.9
			s-2.9-1.3-2.9-2.9v-11.8c0-1.6,1.3-2.9,2.9-2.9c1.3,0,31,0.2,43.5,15.8c1,1.3,0.8,3.1-0.5,4.1C890.5,499.8,889.9,500,889.3,500z"
			/>
	</g>
</g>
<g id="line_00000069397691744916436270000003093005323233327028_">
	<g>
		<path style="fill:#FFFFFF;" d="M440.1,518.2c-1.4,0-2.5-1.1-2.5-2.5v-14.9c0-1.4,1.1-2.5,2.5-2.5s2.5,1.1,2.5,2.5v14.9
			C442.6,517.1,441.5,518.2,440.1,518.2z"/>
	</g>
	<g>
		<path style="fill:#FFFFFF;" d="M447.1,555.4H443c-2.9,0-5.3-2.4-5.3-5.3v-14.2c0-1.4,1.1-2.5,2.5-2.5s2.5,1.1,2.5,2.5v14.2
			c0,0.2,0.2,0.3,0.3,0.3h4.1c0.2,0,0.3-0.2,0.3-0.3v-15.2c0-1.4,1.1-2.5,2.5-2.5s2.5,1.1,2.5,2.5v15.2
			C452.4,553,450,555.4,447.1,555.4z"/>
	</g>
	<g>
		<path style="fill:#FFFFFF;" d="M449.9,518.2c-1.4,0-2.5-1.1-2.5-2.5v-14.9c0-1.4,1.1-2.5,2.5-2.5s2.5,1.1,2.5,2.5v14.9
			C452.4,517.1,451.3,518.2,449.9,518.2z"/>
	</g>
	<g>
		<path style="fill:#FFFFFF;" d="M440.1,484.4c-1.4,0-2.5-1.1-2.5-2.5v-31.9c0-2.9,2.4-5.3,5.3-5.3h4.1c2.9,0,5.3,2.4,5.3,5.3v31.7
			c0,1.4-1.1,2.5-2.5,2.5s-2.5-1.1-2.5-2.5v-31.7c0-0.2-0.2-0.3-0.3-0.3H443c-0.2,0-0.3,0.2-0.3,0.3v31.9
			C442.6,483.3,441.5,484.4,440.1,484.4z"/>
	</g>
	<g>
		<path style="fill:#FFFFFF;" d="M550,519.6c-1.4,0-2.5-1.1-2.5-2.5v-16.2c0-1.4,1.1-2.5,2.5-2.5s2.5,1.1,2.5,2.5v16.2
			C552.5,518.5,551.4,519.6,550,519.6z"/>
	</g>
	<g>
		<path style="fill:#FFFFFF;" d="M556.9,555.5h-4.1c-2.9,0-5.3-2.4-5.3-5.3v-14.2c0-1.4,1.1-2.5,2.5-2.5s2.5,1.1,2.5,2.5v14.2
			c0,0.2,0.2,0.3,0.3,0.3h4.1c0.2,0,0.3-0.2,0.3-0.3v-14.2c0-1.4,1.1-2.5,2.5-2.5s2.5,1.1,2.5,2.5v14.2
			C562.3,553.1,559.9,555.5,556.9,555.5z"/>
	</g>
	<g>
		<path style="fill:#FFFFFF;" d="M559.8,517.3c-1.4,0-2.5-1.1-2.5-2.5v-14c0-1.4,1.1-2.5,2.5-2.5s2.5,1.1,2.5,2.5v14
			C562.3,516.2,561.2,517.3,559.8,517.3z"/>
	</g>
	<g>
		<path style="fill:#FFFFFF;" d="M550,483.8c-1.4,0-2.5-1.1-2.5-2.5v-31.5c0-2.9,2.4-5.3,5.3-5.3h4.1c2.9,0,5.3,2.4,5.3,5.3v31.2
			c0,1.4-1.1,2.5-2.5,2.5s-2.5-1.1-2.5-2.5v-31.2c0-0.2-0.2-0.3-0.3-0.3h-4.1c-0.2,0-0.3,0.2-0.3,0.3v31.5
			C552.5,482.7,551.4,483.8,550,483.8z"/>
	</g>
	<g>
		<path style="fill:#FFFFFF;" d="M570.9,502.4H429c-1.4,0-2.5-1.1-2.5-2.5v-17.8c0-1.4,1.1-2.5,2.5-2.5h141.9c1.4,0,2.5,1.1,2.5,2.5
			v17.8C573.4,501.3,572.3,502.4,570.9,502.4z M431.5,497.4h136.9v-12.8H431.5V497.4z"/>
	</g>
	<g>
		<path style="fill:#FFFFFF;" d="M457.4,502.4H429c-1.4,0-2.5-1.1-2.5-2.5v-17.8c0-1.4,1.1-2.5,2.5-2.5h28.4c1.4,0,2.5,1.1,2.5,2.5
			v17.8C459.9,501.3,458.8,502.4,457.4,502.4z M431.5,497.4h23.4v-12.8h-23.4V497.4z"/>
	</g>
	<g>
		<path style="fill:#FFFFFF;" d="M485.8,502.4h-28.4c-1.4,0-2.5-1.1-2.5-2.5v-17.8c0-1.4,1.1-2.5,2.5-2.5h28.4
			c1.4,0,2.5,1.1,2.5,2.5v17.8C488.3,501.3,487.2,502.4,485.8,502.4z M459.9,497.4h23.4v-12.8h-23.4V497.4z"/>
	</g>
	<g>
		<path style="fill:#FFFFFF;" d="M514.1,502.4h-28.4c-1.4,0-2.5-1.1-2.5-2.5v-17.8c0-1.4,1.1-2.5,2.5-2.5h28.4
			c1.4,0,2.5,1.1,2.5,2.5v17.8C516.6,501.3,515.5,502.4,514.1,502.4z M488.2,497.4h23.4v-12.8h-23.4V497.4z"/>
	</g>
	<g>
		<path style="fill:#FFFFFF;" d="M542.4,502.4h-28.4c-1.4,0-2.5-1.1-2.5-2.5v-17.8c0-1.4,1.1-2.5,2.5-2.5h28.4
			c1.4,0,2.5,1.1,2.5,2.5v17.8C544.9,501.3,543.8,502.4,542.4,502.4z M516.6,497.4h23.4v-12.8h-23.4V497.4z"/>
	</g>
	<g>
		<path style="fill:#FFFFFF;" d="M570.8,502.4h-28.4c-1.4,0-2.5-1.1-2.5-2.5v-17.8c0-1.4,1.1-2.5,2.5-2.5h28.4
			c1.4,0,2.5,1.1,2.5,2.5v17.8C573.3,501.3,572.2,502.4,570.8,502.4z M544.9,497.4h23.4v-12.8h-23.4V497.4z"/>
	</g>
	<g>
		<path style="fill:#FFFFFF;" d="M570.9,537.4H429c-1.4,0-2.5-1.1-2.5-2.5v-17.8c0-1.4,1.1-2.5,2.5-2.5h141.9c1.4,0,2.5,1.1,2.5,2.5
			v17.8C573.4,536.3,572.3,537.4,570.9,537.4z M431.5,532.4h136.9v-12.8H431.5V532.4z"/>
	</g>
	<g>
		<path style="fill:#FFFFFF;" d="M457.4,537.4H429c-1.4,0-2.5-1.1-2.5-2.5v-17.8c0-1.4,1.1-2.5,2.5-2.5h28.4c1.4,0,2.5,1.1,2.5,2.5
			v17.8C459.9,536.3,458.8,537.4,457.4,537.4z M431.5,532.4h23.4v-12.8h-23.4V532.4z"/>
	</g>
	<g>
		<path style="fill:#FFFFFF;" d="M485.8,537.4h-28.4c-1.4,0-2.5-1.1-2.5-2.5v-17.8c0-1.4,1.1-2.5,2.5-2.5h28.4
			c1.4,0,2.5,1.1,2.5,2.5v17.8C488.3,536.3,487.2,537.4,485.8,537.4z M459.9,532.4h23.4v-12.8h-23.4V532.4z"/>
	</g>
	<g>
		<path style="fill:#FFFFFF;" d="M514.1,537.4h-28.4c-1.4,0-2.5-1.1-2.5-2.5v-17.8c0-1.4,1.1-2.5,2.5-2.5h28.4
			c1.4,0,2.5,1.1,2.5,2.5v17.8C516.6,536.3,515.5,537.4,514.1,537.4z M488.2,532.4h23.4v-12.8h-23.4V532.4z"/>
	</g>
	<g>
		<path style="fill:#FFFFFF;" d="M542.4,537.4h-28.4c-1.4,0-2.5-1.1-2.5-2.5v-17.8c0-1.4,1.1-2.5,2.5-2.5h28.4
			c1.4,0,2.5,1.1,2.5,2.5v17.8C544.9,536.3,543.8,537.4,542.4,537.4z M516.6,532.4h23.4v-12.8h-23.4V532.4z"/>
	</g>
	<g>
		<path style="fill:#FFFFFF;" d="M570.8,537.4h-28.4c-1.4,0-2.5-1.1-2.5-2.5v-17.8c0-1.4,1.1-2.5,2.5-2.5h28.4
			c1.4,0,2.5,1.1,2.5,2.5v17.8C573.3,536.3,572.2,537.4,570.8,537.4z M544.9,532.4h23.4v-12.8h-23.4V532.4z"/>
	</g>
</g>
<g id="line_00000030452286448963362640000017429282516292876965_">
	<g>
		<path style="fill:#FFFFFF;" d="M127.9,551.2c-5,0-10.1-0.5-12.2-1.9c-1-0.7-1.6-1.6-1.7-2.7c-0.2-2.2,1.6-3.9,3.8-6.1
			c1.6-1.6,3.4-3.3,4.5-5.2c1.4-2.6,1.6-5.8,1.7-8.9c0.1-2.4,0.2-4.7,0.9-6.8c1-2.9,3.1-4.7,4.6-6.1c0.6-0.5,1.5-1.3,1.6-1.6
			c-0.1-0.5-2-2.7-6.1-4.7c-0.9-0.4-1.9-0.8-2.9-1.3c-3.8-1.6-8-3.3-10.6-7.7c-1.4-2.4-2.2-5.3-3-8.3c-0.9-3.4-1.8-6.8-3.6-9.1
			c-1.6-2.1-4-3.5-6.6-5c-2.8-1.6-5.6-3.3-7.5-5.9c-2-2.8-2.7-6.5-1.9-10.1c0.7-3.6,2.8-6.6,5.8-8.4c6.3-3.8,16.9-2.8,21.8,0.6
			c4.5,3.1,4.4,8.1,4.3,12.1c0,0.9,0,1.8,0,2.7c0.1,4.5,1.5,8.8,3,13.4l-4.8,1.5l2.4-0.8l-2.4,0.7c-1.5-4.7-3-9.6-3.2-14.7
			c0-1,0-2,0-3c0.1-4,0-6.3-2.1-7.8c-3.5-2.4-12-3.1-16.3-0.5c-1.8,1.1-3,2.9-3.5,5.1c-0.5,2.2,0,4.6,1.1,6.2
			c1.2,1.7,3.5,3.1,5.9,4.5c2.7,1.6,5.8,3.4,8,6.2c2.4,3.1,3.4,7.1,4.4,10.9c0.7,2.7,1.4,5.3,2.5,7.1c1.7,2.9,4.9,4.2,8.3,5.6
			c1.1,0.4,2.1,0.9,3.1,1.4c2.3,1.1,9.7,5.1,8.8,10.1c-0.4,1.9-1.8,3.1-3.1,4.4c-1.3,1.2-2.6,2.4-3.2,4c-0.5,1.3-0.6,3.3-0.7,5.4
			c-0.2,3.5-0.4,7.5-2.4,11.1c-1.4,2.5-3.6,4.7-5.4,6.4c-0.5,0.5-1.1,1.1-1.6,1.6c3.5,0.8,12.5,0.9,18.1,0c2.9-0.5,2.9-0.5,3.2-3.4
			c0.1-0.7,0.2-1.6,0.3-2.5c0.8-5.2,3.4-13.6,5.9-21.7c0.4-1.3,1.8-2.1,3.1-1.6c1.3,0.4,2.1,1.8,1.6,3.1c-2.5,7.9-5,16.1-5.8,21
			c-0.1,0.8-0.2,1.6-0.3,2.2c-0.4,4-1.1,6.8-7.4,7.8C136.4,550.8,132.2,551.2,127.9,551.2z"/>
	</g>
	<g>
		<path style="fill:#FFFFFF;" d="M106.9,549.6c-3.2,0-5.6-0.3-6.8-2c-0.6-0.9-0.8-2.1-0.4-3.2c0.5-1.3,1.7-2.5,3.3-4.2
			c1.7-1.8,3.9-4,5-6.2c1-2.1,1.2-4.4,1.4-6.9c0.2-2.1,0.4-4.3,1.1-6.3c1.7-4.6,5.9-7.5,10-10.3c1.1-0.8,2.7-0.5,3.5,0.7
			c0.8,1.1,0.5,2.7-0.7,3.5c-3.6,2.5-7,4.8-8.1,7.9c-0.5,1.4-0.7,3.1-0.8,5c-0.2,2.7-0.5,5.7-1.9,8.6c-1.4,2.9-3.9,5.5-5.9,7.5
			c-0.2,0.2-0.5,0.5-0.8,0.8c1.1,0,2.3,0,3.3,0c1.3,0,2.5,1.1,2.5,2.5c0,1.4-1.1,2.5-2.5,2.5C108.4,549.6,107.6,549.6,106.9,549.6z"
			/>
	</g>
	<g>
		<path style="fill:#FFFFFF;" d="M221.7,551.1c-3.2,0-7-0.5-9.3-2.3c-2.9-2.3-2.9-5.9-2.9-8.8c0-0.8,0-1.7-0.1-2.5
			c-0.3-3.1-1.5-5.9-2.9-8.8c-0.6-1.3,0-2.7,1.2-3.3c1.3-0.6,2.7,0,3.3,1.2c1.4,3.1,3,6.5,3.3,10.5c0.1,0.9,0.1,1.9,0.1,2.8
			c0,2.6,0.1,4.2,1,4.9c1.6,1.3,6.6,1.6,10,1c1.6-0.3,1.9-0.6,1.9-0.6c0,0,0.3-0.5-0.2-2.5c-0.9-4-3.9-11.2-6.8-18.1
			c-0.5-1.3,0.1-2.7,1.3-3.3c1.3-0.5,2.7,0.1,3.3,1.3c3.2,7.5,6.1,14.6,7.1,19c0.4,1.9,0.7,4.4-0.6,6.3c-1.2,1.9-3.4,2.4-5.2,2.7
			C225.2,550.9,223.6,551.1,221.7,551.1z"/>
	</g>
	<g>
		<path style="fill:#FFFFFF;" d="M203.9,549.6c-3.1,0-5.6-0.3-6.7-2.2c-1.1-1.9-0.1-3.9,0.9-5.7c0.3-0.6,0.6-1.2,0.9-1.8
			c0.5-1.4,0.3-2.7,0-4.3c-0.2-1.4,0.7-2.6,2.1-2.9c1.4-0.2,2.6,0.7,2.9,2.1c0.3,2,0.7,4.3-0.3,6.9c-0.3,0.8-0.7,1.6-1.1,2.3
			c-0.1,0.1-0.2,0.3-0.3,0.5c1.1,0.1,2.7,0,3.8,0c1.4,0,2.5,1.1,2.6,2.4c0,1.4-1.1,2.5-2.4,2.6C205.4,549.6,204.6,549.6,203.9,549.6
			z"/>
	</g>
	<g>
		<path style="fill:#FFFFFF;" d="M185.9,532.9c-1.5,0-3.1-0.1-4.7-0.2c-8.1-0.7-17.6-3.6-26.8-6.3c-1.3-0.4-2.1-1.8-1.7-3.1
			c0.4-1.3,1.8-2.1,3.1-1.7l0,0c9,2.7,18.2,5.4,25.8,6.1c7.5,0.7,13.7-0.6,20.2-1.9c1.4-0.3,2.7,0.6,2.9,2c0.3,1.4-0.6,2.7-2,2.9
			C197.5,531.8,192.1,532.9,185.9,532.9z"/>
	</g>
	<g>
		<path style="fill:#FFFFFF;" d="M210.4,522.1c-5.9,0-12.8-1.1-20.1-2.3l-7.7-1.2c-14-2.2-28.5-4.4-38.2-10
			c-10.4-6.1-13.6-15.1-15.2-22.2c-1.4-6.4-1-9.1,4.5-14.2c4.7-4.4,14.5-12.2,27.9-15.6c12.6-3.2,28.8-2.4,41.1,2.2
			c12.4,4.6,20.9,12.8,25.2,24.5c4.3,11.9,4.6,27.6-3.2,34.6C221.2,521,216.3,522.1,210.4,522.1z M178.2,459.6
			c-5.3,0-10.6,0.6-15.3,1.8c-12.3,3.1-21.4,10.4-25.7,14.4c-4.1,3.8-4.1,4.6-3,9.5c1.5,6.5,4.1,13.9,12.8,19
			c8.8,5.1,22.8,7.3,36.4,9.4l7.7,1.2c13.4,2.2,25,4,30.4-0.8c5.8-5.2,5.5-18.9,1.8-29.2c-3.8-10.4-11-17.5-22.2-21.5
			C194.2,460.9,186.1,459.6,178.2,459.6z"/>
	</g>
	<g>
		<path style="fill:#FFFFFF;" d="M230.1,523.1c-1.2,0-2.2-0.8-2.4-2c-0.3-1.4,0.6-2.7,2-2.9l5.4-1.1l-2.3-1.3
			c-1.2-0.7-1.6-2.2-1-3.4c0.7-1.2,2.2-1.6,3.4-1l8.2,4.6c0.9,0.5,1.4,1.5,1.2,2.6c-0.2,1-1,1.9-2,2.1l-12,2.4
			C230.5,523.1,230.3,523.1,230.1,523.1z"/>
	</g>
	<g>
		<path style="fill:#FFFFFF;" d="M181.7,517.6c-0.1,0-0.2,0-0.4,0c-1.4-0.2-2.3-1.5-2.1-2.8l4.3-29.4c0.2-1.1,1.1-2,2.2-2.1
			l21.1-2.3l10.6-8.8c1.1-0.9,2.6-0.7,3.5,0.3c0.9,1.1,0.7,2.6-0.3,3.5l-11.2,9.2c-0.4,0.3-0.8,0.5-1.3,0.6l-19.9,2.2l-4,27.5
			C184,516.7,182.9,517.6,181.7,517.6z"/>
	</g>
	<g>
		<path style="fill:#FFFFFF;" d="M185.6,487.5c-0.4,0-0.9-0.1-1.3-0.4L160,472.2c-1.2-0.7-1.5-2.3-0.8-3.4c0.7-1.2,2.3-1.5,3.4-0.8
			l24.3,14.9c1.2,0.7,1.5,2.3,0.8,3.4C187.2,487,186.4,487.5,185.6,487.5z"/>
	</g>
	<g>
		<path style="fill:#FFFFFF;" d="M161.1,472.2c-1,0-2-0.6-2.3-1.6l-3.1-8.4c-0.5-1.3,0.2-2.7,1.5-3.2c1.3-0.5,2.7,0.2,3.2,1.5
			l3.1,8.4c0.5,1.3-0.2,2.7-1.5,3.2C161.7,472.1,161.4,472.2,161.1,472.2z"/>
	</g>
	<g>
		<path style="fill:#FFFFFF;" d="M143.7,505.4c-0.4,0-0.8-0.1-1.2-0.3c-1.2-0.7-1.7-2.2-1-3.4l17.3-32.4c0.7-1.2,2.2-1.7,3.4-1
			c1.2,0.7,1.7,2.2,1,3.4L145.9,504C145.4,504.9,144.6,505.4,143.7,505.4z"/>
	</g>
	<g>
		<path style="fill:#FFFFFF;" d="M219.7,520c-1,0-2-0.7-2.4-1.7l-11.1-32.6c-0.4-1.3,0.3-2.7,1.6-3.2c1.3-0.4,2.7,0.3,3.2,1.6
			l11.1,32.6c0.4,1.3-0.3,2.7-1.6,3.2C220.3,519.9,220,520,219.7,520z"/>
	</g>
</g>
<g id="line_00000003816833772682967770000002421928833942997918_">
	<g>
		<path style="fill:#FFFFFF;" d="M135.7,784.7c-5.5,0-10-4.5-10-10s4.5-10,10-10s10,4.5,10,10S141.2,784.7,135.7,784.7z
			 M135.7,769.7c-2.8,0-5,2.2-5,5s2.2,5,5,5s5-2.2,5-5S138.5,769.7,135.7,769.7z"/>
	</g>
	<g>
		<path style="fill:#FFFFFF;" d="M211.1,880.6c-1,0-2-0.2-2.9-0.7c-0.1,0-0.1-0.1-0.2-0.1l-21-8.6c-3.3-1.5-6.3-3.3-9-5.6
			l-18.8-16.7c-1-0.9-1.1-2.5-0.2-3.5c0.9-1,2.5-1.1,3.5-0.2l18.8,16.7c2.3,1.9,4.9,3.6,7.7,4.8l21.1,8.7c0.1,0,0.2,0.1,0.3,0.1
			c0.5,0.2,1,0.3,1.4,0.1c0.3-0.1,0.6-0.3,0.8-0.6c0.1-1.3-0.6-2.6-1.8-3.3l-16.9-10c-3.1-2-5.7-4.4-7.9-7.3l-14.7-21
			c-0.8-1.1-0.5-2.7,0.6-3.5c1.1-0.8,2.7-0.5,3.5,0.6l14.6,20.9c1.7,2.3,3.9,4.4,6.5,6l16.7,9.9c3.2,1.7,4.9,5.3,4.2,8.9
			c0,0.2-0.1,0.4-0.2,0.6c-0.8,1.6-2.1,2.8-3.8,3.4C212.6,880.5,211.9,880.6,211.1,880.6z M215,875.7L215,875.7L215,875.7z"/>
	</g>
	<g>
		<path style="fill:#FFFFFF;" d="M134.4,902c-0.1,0-0.1,0-0.2,0c-1.9-0.2-3.6-1.1-4.8-2.5s-1.8-3.3-1.6-5.2l0.5-34.8
			c0.2-3.7,1.3-7.3,3.1-10.4l12.2-19.2c1.1-1.6,1.4-3.5,1-5.4l-1.4-3.1c-0.6-1.3,0-2.7,1.3-3.3c1.3-0.5,2.7,0,3.3,1.3l1.4,3.3
			c0.1,0.1,0.1,0.2,0.1,0.4c0.9,3.3,0.3,6.7-1.6,9.5l-12.1,19c-1.4,2.4-2.2,5.2-2.4,8l-0.5,34.9c-0.1,0.7,0.1,1.3,0.5,1.7
			c0.3,0.4,0.7,0.6,1.2,0.7c1.3-0.2,2.3-1.3,2.4-2.6l3.4-27.7c0.6-3.8,2.3-7.1,4.8-9.9l8-8c2-2,5.3-5.1,7.5-6.9l7.3-6.1
			c1.7-1.6,2.8-3.9,2.9-6.4c-0.1-2.7-0.8-5.5-2.1-8.1l-12.6-23c-0.7-1.2-0.2-2.7,1-3.4c1.2-0.7,2.7-0.2,3.4,1l12.6,23.1
			c1.7,3.4,2.6,6.9,2.7,10.5c-0.2,4-1.9,7.5-4.6,10.1l-7.4,6.2c-2.1,1.7-5.3,4.7-7.2,6.6l-7.9,7.9c-1.8,1.9-3,4.5-3.4,7.2l-3.3,27.4
			c-0.3,3.7-3.3,6.8-7.1,7.1C134.6,902,134.5,902,134.4,902z"/>
	</g>
	<g>
		<path style="fill:#FFFFFF;" d="M137.3,800.1c-1.3,0-2.4-1-2.5-2.3c-0.4-5.2,2.6-10.1,7.5-12.1c3.4-1.3,11.8-2.9,18.3,10.1
			c0.6,1.2,0.1,2.7-1.1,3.4c-1.2,0.6-2.7,0.1-3.4-1.1c-3.4-6.9-7.5-9.5-11.9-7.7c-2.8,1.2-4.5,4-4.3,7.1c0.1,1.4-0.9,2.6-2.3,2.7
			C137.4,800.1,137.3,800.1,137.3,800.1z"/>
	</g>
	<g>
		<path style="fill:#FFFFFF;" d="M118.3,817c-1.4,0-2.5-1.1-2.5-2.5s1.1-2.5,2.5-2.5h17.5c1.7-0.1,3.4-1.3,3.9-3.1l3.5-12.6
			c0.4-1.3,1.7-2.1,3.1-1.7c1.3,0.4,2.1,1.8,1.7,3.1l-3.5,12.7c-1.2,3.8-4.7,6.5-8.6,6.6L118.3,817z"/>
	</g>
</g>
<g id="line_00000039814034843443969140000014730048361672784820_">
	<g>
		<path style="fill:#FFFFFF;" d="M421.2,838.8c-0.4,0-0.8-0.1-1.2-0.3c-0.8-0.4-1.3-1.3-1.3-2.2c0-43.9,36.5-79.6,81.3-79.6
			c40.6,0,74.4,28.3,80.4,67.4c0.2,1.4-0.7,2.6-2.1,2.8c-1.3,0.2-2.6-0.7-2.8-2.1c-5.6-36.6-37.3-63.1-75.4-63.1
			c-40.7,0-74,31.3-76.2,70.6c4-1.5,10.2-2.8,15.1,1.1c4-2,19.1-7.9,34.3,0.2c4.9-1.5,31.1-8.8,54.3-0.1c15.1-8,30.1-2.2,34.3-0.2
			c7.5-6,17.8,0.2,18.2,0.5c1.2,0.7,1.5,2.3,0.8,3.4c-0.7,1.2-2.3,1.5-3.4,0.8c-0.1,0-7.7-4.6-12.7-0.7c-1.4,1.1-3.3,1.3-5,0.6
			c-3.7-1.7-16.8-6.8-29.9,0.1c-1.2,0.7-2.7,0.7-4,0.3c-21.7-8.2-46.5-1.3-51.3,0.2c-1.2,0.4-2.5,0.2-3.6-0.4
			c-13.2-7-26.3-1.9-30-0.1c-1.6,0.8-3.5,0.6-4.9-0.5c-5-3.9-13.3,1-13.4,1.1C422.1,838.7,421.7,838.8,421.2,838.8z"/>
	</g>
	<g>
		<path style="fill:#FFFFFF;" d="M512.3,915.8c-8.2,0-14.8-7.2-14.8-16.2v-67.9c0-1.4,1.1-2.5,2.5-2.5s2.5,1.1,2.5,2.5v67.9
			c0,6.1,4.4,11.2,9.8,11.2s9.8-5,9.8-11.2c0-1.4,1.1-2.5,2.5-2.5s2.5,1.1,2.5,2.5C527.1,908.6,520.5,915.8,512.3,915.8z"/>
	</g>
	<g>
		<path style="fill:#FFFFFF;" d="M500,761.7c-1.4,0-2.5-1.1-2.5-2.5v-5.9c0-1.4,1.1-2.5,2.5-2.5s2.5,1.1,2.5,2.5v5.9
			C502.5,760.6,501.4,761.7,500,761.7z"/>
	</g>
	<g>
		<path style="fill:#FFFFFF;" d="M472.9,838.6c0,0-0.1,0-0.1,0c-1.4-0.1-2.5-1.2-2.4-2.6c1.3-31.4,6.4-54.1,15.1-67.6
			c1.4-2.2,2.9-4,4.2-5.5c-14.1,3.6-39,18-48.7,73.4c-0.2,1.4-1.5,2.3-2.9,2c-1.4-0.2-2.3-1.5-2-2.9c7.5-42.6,24.3-61.7,37.1-70.3
			c14.2-9.4,26.5-8.4,27-8.4c1.3,0.1,2.3,1.2,2.3,2.5s-1,2.4-2.3,2.5c-0.2,0-21.9,3.9-24.8,74.5
			C475.4,837.5,474.3,838.6,472.9,838.6z"/>
	</g>
	<g>
		<path style="fill:#FFFFFF;" d="M527.7,838.5c-1.3,0-2.4-1.1-2.5-2.4c-2.9-70.6-25.2-74.4-25.5-74.4c-1.3-0.2-2.2-1.3-2.2-2.5
			s1-2.3,2.3-2.4c0.5,0,50.4-3.5,64.8,78.6c0.2,1.4-0.7,2.7-2,2.9c-1.4,0.2-2.7-0.7-2.9-2c-9.7-55.3-34.9-69.7-49.2-73.4
			c7.9,8.3,17.9,27.7,19.8,73.1c0.1,1.4-1,2.5-2.4,2.6C527.7,838.5,527.7,838.5,527.7,838.5z"/>
	</g>
</g>
<g id="line_00000098199985627369569070000006339080110210989754_">
	<g>
		<path style="fill:#FFFFFF;" d="M815.1,806.1c-0.6,0-1.1-0.2-1.6-0.5c-0.6-0.5-0.9-1.2-0.9-1.9l-0.2-11.7c0-1.2,0.8-2.2,2-2.5
			l63.6-14.2c0.7-0.2,1.5,0,2.1,0.5c0.6,0.5,0.9,1.2,0.9,1.9l0.2,11.7c0,1.2-0.8,2.2-2,2.5L815.6,806
			C815.4,806.1,815.2,806.1,815.1,806.1z M817.4,793.9l0.1,6.6l58.6-13.1l-0.1-6.6L817.4,793.9z"/>
	</g>
	<g>
		<path style="fill:#FFFFFF;" d="M801.5,891.5c-9.4,0-17-7.6-17-17s7.6-17,17-17s17,7.6,17,17S810.9,891.5,801.5,891.5z
			 M801.5,862.5c-6.6,0-12,5.4-12,12c0,6.6,5.4,12,12,12s12-5.4,12-12C813.5,867.9,808.1,862.5,801.5,862.5z"/>
	</g>
	<g>
		<path style="fill:#FFFFFF;" d="M816,877c-1.4,0-2.5-1.1-2.5-2.5l-1.1-82.6c0-1.4,1.1-2.5,2.5-2.5c0,0,0,0,0,0
			c1.4,0,2.5,1.1,2.5,2.5l1.1,82.6C818.5,875.8,817.4,877,816,877C816,877,816,877,816,877z"/>
	</g>
	<g>
		<path style="fill:#FFFFFF;" d="M865.1,877.5c-9.4,0-17-7.6-17-17s7.6-17,17-17s17,7.6,17,17S874.5,877.5,865.1,877.5z
			 M865.1,848.6c-6.6,0-12,5.4-12,12c0,6.6,5.4,12,12,12s12-5.4,12-12C877.1,854,871.7,848.6,865.1,848.6z"/>
	</g>
	<g>
		<path style="fill:#FFFFFF;" d="M879.6,863.1c-1.4,0-2.5-1.1-2.5-2.5L876,778c0-1.4,1.1-2.5,2.5-2.5c0,0,0,0,0,0
			c1.4,0,2.5,1.1,2.5,2.5l1.1,82.6C882.1,861.9,881,863,879.6,863.1C879.6,863.1,879.6,863.1,879.6,863.1z"/>
	</g>
</g>
</svg>
