<?xml version="1.0" encoding="utf-8"?>
<!-- Generator: Adobe Illustrator 27.0.0, SVG Export Plug-In . SVG Version: 6.00 Build 0)  -->
<svg version="1.1" id="emoji" xmlns="http://www.w3.org/2000/svg" xmlns:xlink="http://www.w3.org/1999/xlink" x="0px" y="0px"
	 width="33.2px" height="63.5px" viewBox="0 0 33.2 63.5" style="enable-background:new 0 0 33.2 63.5;" xml:space="preserve">
<style type="text/css">
	.st0{fill:#D292FC;stroke:#C17AF9;stroke-width:0.6;stroke-linecap:round;stroke-linejoin:round;stroke-miterlimit:10;}
	.st1{fill:none;stroke:#C17AF9;stroke-width:0.6;stroke-linecap:round;stroke-linejoin:round;stroke-miterlimit:10;}
	.st2{fill:#FEFDFF;stroke:#9E63D6;stroke-width:0.7;stroke-linecap:round;stroke-linejoin:round;stroke-miterlimit:10;}
	.st3{fill:none;stroke:#6E4199;stroke-width:0.8;stroke-linecap:round;stroke-linejoin:round;stroke-miterlimit:10;}
</style>
<g>
	<path class="st0" d="M20.9,31.2c0,0,2.2,5.1,0.9,7.9c-0.3,0.7-0.1,2.3,0.4,4.3c0.6,1.9,0.7,3.1,2.2,5c2.5,3.3,0.4,4.7,3.7,7.4
		c-3.4-1.3-3.1-1.6-3.8-4.5c-0.3-1.1-0.6-2.1-1.8-3.3c-0.6-0.7-1.2-2.3-1.6-4.1c-0.1,0.8,0,3.3,1.6,5.8c1.3,2,0.3,4.5,1.9,6
		c-2.4-1.3-1.4-3.4-2.9-5.2c-2.2-2.7-2.2-7.1-2.2-7.1c0.3,1.6,0,5.1,0.6,8.4c0.6,4,2.4,5.6-1.3,9.4c0.6-1.2,0.5-1.6,0.9-3
		c0.8-2.7-1-2.9-1.3-6.4c-0.4-4.4-0.9-8.8-0.9-8.8s0.4,2.8-0.1,6.6c-0.4,2.8,0.6,4.1-1.2,9c0.4-4.3-0.7-6-0.5-8.9
		c0.3-3.8-0.3-6.7-0.3-6.7s-0.2,3-0.7,5.9c-0.3,1.7-1.3,3.9-1.5,5.1c-0.1,1.2,0.5,3.3,0.6,4.5c0.2,2.4,0.2,2.7,0.2,2.7
		s-0.8-2-1.5-4.1c-0.3-1.1-0.5-1.9-0.4-3.3s0.5-2.7,0.7-3.9c0.3-2.4,0.4-5.6,0.4-5.6c-0.3,1.8-1.2,3.7-1.7,5.5
		c-0.8,2.4-0.2,4.6-1,6.2c0.1-2.4-0.8-4.3-0.3-6.3c0.4-1.6,0.9-3.5,0.9-5.5c0,0-1,1.7-1.4,4.5c-0.3,1.6-1,2.9-1.6,4.6
		c-0.6,1.7-2.7,2.7-3.7,4.6c-0.3-2,1.9-3.3,2.6-4.9C7.4,51.7,8,49.7,8.3,48c0.7-3.8,2.4-7.6,1.7-8.8c-1.5-2.7,0.8-7.9,0.8-7.9
		S14.6,33,20.9,31.2z"/>
	<g>
		<path class="st0" d="M21.4,19.5c0,0,6.3-4.6,3-8l-9.3-9c0,0-4.7,4-9.7,9c0,0-6.7,6.2,4.1,11.5c-0.7,6.5,0.3,8.5,0.3,8.5
			s5.3,2,12,0C21.8,31.5,22.8,27.7,21.4,19.5"/>
		<path class="st1" d="M13.7,7.5c-6.7,15-4,24-4,24s5.3,2,12,0c0,0,2.7-13-6.7-29c0,0-4.7,4-9.7,9c0,0-6.7,6.2,4.1,11.5"/>
		<path class="st1" d="M21.4,19.5c0,0,6.3-4.6,3-8l-9.3-9"/>
	</g>
</g>
<g id="hair">
</g>
<g id="skin">
</g>
<g id="skin-shadow">
</g>
<g>
	<circle class="st2" cx="11.6" cy="37.1" r="2.7"/>
	<path d="M12.8,37c-0.3,0-0.6-0.3-0.6-0.6c0-0.1,0-0.2,0.1-0.3c-0.2-0.2-0.5-0.3-0.8-0.3c-0.7,0-1.3,0.6-1.3,1.3
		c0,0.7,0.6,1.3,1.3,1.3c0.7,0,1.3-0.6,1.3-1.3C12.9,37.1,12.8,37,12.8,37C12.8,37,12.8,37,12.8,37z"/>
</g>
<g>
	<circle class="st2" cx="20.2" cy="37.1" r="2.7"/>
	<path d="M21.4,37c-0.3,0-0.6-0.3-0.6-0.6c0-0.1,0-0.2,0.1-0.3c-0.2-0.2-0.5-0.3-0.8-0.3c-0.7,0-1.3,0.6-1.3,1.3
		c0,0.7,0.6,1.3,1.3,1.3s1.3-0.6,1.3-1.3C21.5,37.1,21.5,37,21.4,37C21.4,37,21.4,37,21.4,37z"/>
</g>
<g>
	<line class="st3" x1="7.6" y1="36.7" x2="7.6" y2="37.6"/>
	<line class="st3" x1="24" y1="36.7" x2="24" y2="37.6"/>
	<circle class="st3" cx="11.6" cy="37.1" r="3.3"/>
	<circle class="st3" cx="20.1" cy="37.1" r="3.3"/>
	<line class="st3" x1="14.9" y1="37.1" x2="16.7" y2="37.1"/>
</g>
</svg>
